<svg id="didactice_hover_r" xmlns="http://www.w3.org/2000/svg" width="230" height="230" viewBox="0 0 230 230">
  <g id="Component_1_31" data-name="Component 1 – 31">
    <g id="Group_12" data-name="Group 12">
      <g id="Rectangle_5" data-name="Rectangle 5" fill="none" stroke="#19ac5d" stroke-width="5">
        <rect width="230" height="230" stroke="none"/>
        <rect x="2.5" y="2.5" width="225" height="225" fill="none"/>
      </g>
    </g>
    <text id="Text" transform="translate(20 115)" fill="#19ac5d" font-size="21" font-family="SegoeUI, Segoe UI" opacity="0"><tspan x="0" y="23">Text</tspan></text>
    <path id="Path_85" data-name="Path 85" d="M-31.714.293c3.894,0,6.506-1.941,7.312-5.42h-2.222c-.635,2.148-2.49,3.394-5.078,3.394-3.479,0-5.688-2.759-5.688-7.08,0-4.285,2.234-7.068,5.676-7.068a5.039,5.039,0,0,1,5.09,3.821H-24.4c-.562-3.516-3.479-5.847-7.312-5.847-4.822,0-7.935,3.564-7.935,9.094C-39.648-3.235-36.572.293-31.714.293Zm13.757-1.88c-1.526,0-2.539-.793-2.539-2s.977-1.953,2.686-2.063l3.394-.208v1.038A3.341,3.341,0,0,1-17.957-1.587ZM-18.433.22a4.63,4.63,0,0,0,4.077-2.4h.049V0h2.014V-8.777c0-2.527-1.88-4.138-4.858-4.138-3,0-4.883,1.685-5.029,3.882h2.051a2.664,2.664,0,0,1,2.93-2.014c1.758,0,2.783.928,2.783,2.478v1.062l-3.638.208c-2.93.171-4.6,1.538-4.6,3.711C-22.656-1.306-20.959.22-18.433.22Zm13.647,0a4.543,4.543,0,0,0,4.1-2.368h.037V0H1.379V-17.615H-.745v6.982H-.793a4.46,4.46,0,0,0-4.041-2.283c-3.2,0-5.383,2.588-5.383,6.567S-8.02.22-4.785.22Zm.4-11.267c2.185,0,3.65,1.868,3.65,4.7s-1.465,4.7-3.65,4.7c-2.246,0-3.662-1.819-3.662-4.7S-6.628-11.047-4.382-11.047ZM4.248,0H6.372V-7.91a2.689,2.689,0,0,1,2.722-2.979,4.275,4.275,0,0,1,1.135.122V-12.83a5.472,5.472,0,0,0-.854-.085A3.109,3.109,0,0,0,6.3-10.62H6.25V-12.7h-2ZM16.431-11.072a3.4,3.4,0,0,1,3.381,3.638h-6.9A3.568,3.568,0,0,1,16.431-11.072Zm3.333,7.434a3.065,3.065,0,0,1-3.149,2.014c-2.283,0-3.711-1.6-3.711-4.028v-.122h9.106V-6.58c0-3.845-2.112-6.335-5.542-6.335-3.5,0-5.75,2.673-5.75,6.616,0,3.992,2.209,6.519,5.847,6.519,2.771,0,4.919-1.636,5.286-3.857ZM24.255,0h2.124V-17.615H24.255ZM34.338-11.072A3.4,3.4,0,0,1,37.72-7.434h-6.9A3.568,3.568,0,0,1,34.338-11.072Zm3.333,7.434a3.065,3.065,0,0,1-3.149,2.014c-2.283,0-3.711-1.6-3.711-4.028v-.122h9.106V-6.58c0-3.845-2.112-6.335-5.542-6.335-3.5,0-5.75,2.673-5.75,6.616,0,3.992,2.209,6.519,5.847,6.519,2.771,0,4.919-1.636,5.286-3.857ZM-41.724,30.22a4.543,4.543,0,0,0,4.1-2.368h.037V30h2.026V12.385h-2.124v6.982h-.049a4.46,4.46,0,0,0-4.041-2.283c-3.2,0-5.383,2.588-5.383,6.567S-44.958,30.22-41.724,30.22Zm.4-11.267c2.185,0,3.65,1.868,3.65,4.7s-1.465,4.7-3.65,4.7c-2.246,0-3.662-1.819-3.662-4.7S-43.567,18.953-41.321,18.953ZM-32.581,30h2.124V17.3h-2.124Zm1.062-14.832a1.331,1.331,0,0,0,1.331-1.318,1.323,1.323,0,0,0-1.331-1.318,1.321,1.321,0,0,0-1.318,1.318A1.329,1.329,0,0,0-31.519,15.168Zm8.74,15.051a4.543,4.543,0,0,0,4.1-2.368h.037V30h2.026V12.385h-2.124v6.982h-.049a4.46,4.46,0,0,0-4.041-2.283c-3.2,0-5.383,2.588-5.383,6.567S-26.013,30.22-22.778,30.22Zm.4-11.267c2.185,0,3.65,1.868,3.65,4.7s-1.465,4.7-3.65,4.7c-2.246,0-3.662-1.819-3.662-4.7S-24.622,18.953-22.375,18.953Zm12.817,9.46c-1.526,0-2.539-.793-2.539-2s.977-1.953,2.686-2.063l3.394-.208v1.038A3.341,3.341,0,0,1-9.558,28.413Zm-.476,1.807a4.63,4.63,0,0,0,4.077-2.4h.049V30h2.014V21.223c0-2.527-1.88-4.138-4.858-4.138-3,0-4.883,1.685-5.029,3.882h2.051A2.664,2.664,0,0,1-8.8,18.953c1.758,0,2.783.928,2.783,2.478v1.062l-3.638.208c-2.93.171-4.6,1.538-4.6,3.711C-14.258,28.694-12.561,30.22-10.034,30.22ZM9.351,21.467a5.056,5.056,0,0,0-5.334-4.382c-3.5,0-5.835,2.563-5.835,6.567,0,4.089,2.344,6.567,5.859,6.567a5.055,5.055,0,0,0,5.334-4.309H7.288a3.063,3.063,0,0,1-3.235,2.441c-2.2,0-3.711-1.746-3.711-4.7,0-2.881,1.489-4.7,3.687-4.7a3.12,3.12,0,0,1,3.247,2.515Zm2.661-7.227V17.3H10.12V19.05h1.892V26.7c0,2.441.9,3.394,3.235,3.394a7.567,7.567,0,0,0,1.343-.1V28.218a8.265,8.265,0,0,1-.879.061c-1.086,0-1.575-.525-1.575-1.685V19.05H16.6V17.3H14.136V14.241ZM18.97,30h2.124V17.3H18.97Zm1.062-14.832a1.318,1.318,0,1,0-1.318-1.318A1.331,1.331,0,0,0,20.032,15.168Zm14.478,6.3a5.056,5.056,0,0,0-5.334-4.382c-3.5,0-5.835,2.563-5.835,6.567,0,4.089,2.344,6.567,5.859,6.567a5.055,5.055,0,0,0,5.334-4.309H32.446a3.063,3.063,0,0,1-3.235,2.441c-2.2,0-3.711-1.746-3.711-4.7,0-2.881,1.489-4.7,3.687-4.7a3.12,3.12,0,0,1,3.247,2.515Zm7.068-2.539a3.4,3.4,0,0,1,3.381,3.638h-6.9A3.568,3.568,0,0,1,41.577,18.928Zm3.333,7.434a3.065,3.065,0,0,1-3.149,2.014c-2.283,0-3.711-1.6-3.711-4.028v-.122h9.106V23.42c0-3.845-2.112-6.335-5.542-6.335-3.5,0-5.75,2.673-5.75,6.616,0,3.992,2.209,6.519,5.847,6.519,2.771,0,4.919-1.636,5.286-3.857Z" transform="translate(114.656 108.408)" fill="#19ac5d" stroke="#19ac5d" stroke-width="0.5"/>
  </g>
  <path id="Path_8" data-name="Path 8" d="M29.132,29.132H0V24.009H24.009V0h5.123Z" transform="translate(190.87 190.868)" fill="none"/>
</svg>
