<?xml version="1.0" encoding="utf-8"?>
<!-- Generator: Adobe Illustrator 19.0.0, SVG Export Plug-In . SVG Version: 6.00 Build 0)  -->
<svg version="1.1" id="Layer_1" xmlns="http://www.w3.org/2000/svg" xmlns:xlink="http://www.w3.org/1999/xlink" x="0px" y="0px"
	 viewBox="-2022 2024 50 50" style="enable-background:new -2022 2024 50 50;" xml:space="preserve">
<style type="text/css">
	.st0{fill:#FFFFFF;}
</style>
<g id="Mask_Group_4" transform="translate(-1429 -1150)">
	<path id="facebook1" class="st0" d="M-585.7,3224h16.3v-17.8h-5.9v-5.9h5.9v-7.3c0-4,3.3-7.3,7.3-7.3h7.3v5.9h-5.9
		c-1.6,0-2.9,1.3-2.9,2.9v5.9h8.5l-1,5.9h-7.5v17.8h13.2c4,0,7.3-3.3,7.3-7.3v-35.4c0-4-3.3-7.3-7.3-7.3h-35.4c-4,0-7.3,3.3-7.3,7.3
		v35.4C-593,3220.7-589.7,3224-585.7,3224z M-590.1,3181.3c0-2.4,2-4.4,4.4-4.4h35.4c2.4,0,4.4,2,4.4,4.4v35.4c0,2.4-2,4.4-4.4,4.4
		h-10.3v-11.9h7.1l2-11.7h-9.1v-2.9h8.8v-11.7H-562c-5.7,0-10.3,4.6-10.3,10.3v4.4h-5.9v11.7h5.9v11.9h-13.4c-2.4,0-4.4-2-4.4-4.4
		V3181.3z"/>
</g>
</svg>
