<svg xmlns="http://www.w3.org/2000/svg" width="230" height="230" viewBox="0 0 230 230">
  <g id="galeria_r" transform="translate(-365 -590)">
    <g id="Component_1_32" data-name="Component 1 – 32" transform="translate(365 590)">
      <g id="Group_12" data-name="Group 12">
        <rect id="Rectangle_5" data-name="Rectangle 5" width="230" height="230" fill="#004b28"/>
      </g>
      <text id="Text" transform="translate(20 115)" fill="#004b28" font-size="21" font-family="SegoeUI, Segoe UI" opacity="0"><tspan x="0" y="23">Text</tspan></text>
      <path id="Path_76" data-name="Path 76" d="M-20.172-7.288V-8.96h-7.166v1.929h4.968v.317c0,2.954-2.148,4.98-5.273,4.98-3.589,0-5.811-2.747-5.811-7.178,0-4.358,2.185-6.97,5.811-6.97a5.013,5.013,0,0,1,5.054,3.735h2.307c-.659-3.5-3.552-5.762-7.361-5.762-4.932,0-8.069,3.5-8.069,9.009,0,5.6,3.149,9.192,8.069,9.192C-22.943.293-20.172-2.527-20.172-7.288Zm6.665,5.7c-1.526,0-2.539-.793-2.539-2s.977-1.953,2.686-2.063l3.394-.208v1.038A3.341,3.341,0,0,1-13.507-1.587ZM-13.983.22a4.63,4.63,0,0,0,4.077-2.4h.049V0h2.014V-8.777c0-2.527-1.88-4.138-4.858-4.138-3,0-4.883,1.685-5.029,3.882h2.051a2.664,2.664,0,0,1,2.93-2.014c1.758,0,2.783.928,2.783,2.478v1.062L-13.6-7.3c-2.93.171-4.6,1.538-4.6,3.711C-18.207-1.306-16.51.22-13.983.22ZM-5.035,0h2.124V-17.615H-5.035ZM5.048-11.072A3.4,3.4,0,0,1,8.429-7.434h-6.9A3.568,3.568,0,0,1,5.048-11.072ZM8.38-3.638A3.065,3.065,0,0,1,5.231-1.624c-2.283,0-3.711-1.6-3.711-4.028v-.122h9.106V-6.58c0-3.845-2.112-6.335-5.542-6.335-3.5,0-5.75,2.673-5.75,6.616C-.665-2.307,1.544.22,5.182.22c2.771,0,4.919-1.636,5.286-3.857ZM12.762,0h2.124V-7.91a2.689,2.689,0,0,1,2.722-2.979,4.275,4.275,0,0,1,1.135.122V-12.83a5.472,5.472,0,0,0-.854-.085,3.109,3.109,0,0,0-3.076,2.295h-.049V-12.7h-2Zm7.813,0H22.7V-12.7H20.575Zm1.062-14.832a1.331,1.331,0,0,0,1.331-1.318,1.323,1.323,0,0,0-1.331-1.318,1.321,1.321,0,0,0-1.318,1.318A1.329,1.329,0,0,0,21.637-14.832ZM29.755-1.587c-1.526,0-2.539-.793-2.539-2s.977-1.953,2.686-2.063l3.394-.208v1.038A3.341,3.341,0,0,1,29.755-1.587ZM29.279.22a4.63,4.63,0,0,0,4.077-2.4H33.4V0h2.014V-8.777c0-2.527-1.88-4.138-4.858-4.138-3,0-4.883,1.685-5.029,3.882h2.051a2.664,2.664,0,0,1,2.93-2.014c1.758,0,2.783.928,2.783,2.478v1.062L29.657-7.3c-2.93.171-4.6,1.538-4.6,3.711C25.055-1.306,26.752.22,29.279.22Z" transform="translate(114.712 123.908)" fill="#fff"/>
    </g>
    <path id="Path_8" data-name="Path 8" d="M29.132,29.132H0V24.009H24.009V0h5.123Z" transform="translate(555.868 780.868)" fill="#fff"/>
  </g>
</svg>
