<svg xmlns="http://www.w3.org/2000/svg" xmlns:xlink="http://www.w3.org/1999/xlink" width="1189.01" height="103" viewBox="0 0 1189.01 103">
  <defs>
    <clipPath id="clip-path">
      <rect id="Rectangle_11" data-name="Rectangle 11" width="103" height="103" transform="translate(1561 860)" fill="#004b28" stroke="#707070" stroke-width="1"/>
    </clipPath>
  </defs>
  <g id="Group_18" data-name="Group 18" transform="translate(-366 -870)">
    <g id="Group_13" data-name="Group 13" transform="translate(-106 10)">
      <text id="_1235" data-name="1235" transform="translate(1449 860)" font-size="59" font-family="SFProDisplay-Medium, SF Pro Display" font-weight="500"><tspan x="1.797" y="56">1235</tspan></text>
      <text id="ELEVI" transform="translate(1449 930)" font-size="27" font-family="SFProDisplay-Light, SF Pro Display" font-weight="300"><tspan x="69.031" y="26">ELEVI</tspan></text>
      <g id="student" transform="translate(1515.704 860)">
        <g id="Group_17" data-name="Group 17" transform="translate(72.296)">
          <path id="Path_32" data-name="Path 32" d="M140.328,68.032V57.309L135.8,59.07l-.013-.03-.108-.2a11.647,11.647,0,0,0-7.7-5.151L117.1,51.712v-.86a16.623,16.623,0,0,0,7.983-11.167,6.648,6.648,0,0,0,5.292-6.5V16.8a10.406,10.406,0,0,0-7.434-9.984l-.83-.83A20.432,20.432,0,0,0,87.23,20.431V33.186a6.648,6.648,0,0,0,5.292,6.5A16.624,16.624,0,0,0,100.5,50.853v.86l-10.887,1.98a11.651,11.651,0,0,0-7.693,5.146l-.1.242-4.551-1.77V68.032A4.984,4.984,0,0,0,72.3,73.01v6.637a4.984,4.984,0,0,0,4.978,4.978v6.113L108.8,103l31.527-12.262V84.625a4.984,4.984,0,0,0,4.978-4.978V73.01A4.984,4.984,0,0,0,140.328,68.032Zm-20.121-12.38,7.185,1.306A8.313,8.313,0,0,1,132.63,60.3l-16.054,6.242Zm-16.243-3.277a16.531,16.531,0,0,0,9.674,0L108.8,56Zm2.311,5.881-3.387,3.385-2.2-6.589,1.057-.191Zm9.578-3.393,1.057.191-2.2,6.589-3.387-3.385Zm9.541-18.818V30.329a3.29,3.29,0,0,1,0,5.715Zm-33.186,0a3.29,3.29,0,0,1,0-5.715Zm0-11.154v1.895a6.582,6.582,0,0,0-1.659.687v-7.04a17.113,17.113,0,0,1,29.214-12.1L121.226,9.8l.446.11a7.092,7.092,0,0,1,5.381,6.891V27.472a6.521,6.521,0,0,0-1.659-.687V24.89h-5.262a14.433,14.433,0,0,1-11.491-5.743l-1.319-1.762-3.3,3.3A14.276,14.276,0,0,1,93.867,24.89ZM95.526,36.5V28.132a17.563,17.563,0,0,0,10.845-5.1l.645-.645a17.774,17.774,0,0,0,13.115,5.824h1.943v8.3a13.274,13.274,0,1,1-26.549,0ZM90.21,56.957l7.185-1.306,3.631,10.893L84.968,60.3A8.311,8.311,0,0,1,90.21,56.957Zm-14.6,22.689V73.01a1.661,1.661,0,0,1,1.659-1.659,4.978,4.978,0,0,1,0,9.956A1.661,1.661,0,0,1,75.615,79.647Zm31.527,19.145L80.593,88.469V83.921a8.28,8.28,0,0,0,0-15.186V62.161l26.549,10.324ZM102.215,67.01l6.586-6.587,6.586,6.586L108.8,69.57Zm34.794,21.458L110.46,98.79V72.485l26.549-10.324v6.574a8.28,8.28,0,0,0,0,15.186Zm4.978-8.821a1.661,1.661,0,0,1-1.659,1.659,4.978,4.978,0,1,1,0-9.956,1.661,1.661,0,0,1,1.659,1.659Z" transform="translate(-72.296)" fill="#004b28"/>
        </g>
      </g>
    </g>
    <g id="Group_14" data-name="Group 14" transform="translate(-1006 10)">
      <text id="_57" data-name="57" transform="translate(1422 860)" font-size="59" font-family="SFProDisplay-Medium, SF Pro Display" font-weight="500"><tspan x="65.81" y="56">57</tspan></text>
      <text id="ANI_DE_SUCCES" data-name="ANI DE SUCCES" transform="translate(1372 930)" font-size="27" font-family="SFProDisplay-Light, SF Pro Display" font-weight="300"><tspan x="0.221" y="26">ANI DE SUCCES</tspan></text>
      <g id="succes" transform="translate(1560.703 860)">
        <path id="Path_10" data-name="Path 10" d="M.3,96.156l1.335,3.005L49.544,79.295l8.347,1,3,9.182-4.006,3.84a4.812,4.812,0,0,0-1.168,5.509L57.39,103,85.1,92.149l-1.5-4.006a4.72,4.72,0,0,0-4.674-3.172H73.416l-3-7.179,7.345-3.672a5.017,5.017,0,0,0,2.5-6.177L70.746,42.4A5.143,5.143,0,0,0,64.234,39.4a.163.163,0,0,0-.166.167l-7.012,3-1-2.5,3.84-4.507a19.646,19.646,0,0,0,4.841-10.684l4.841-5.843A8.767,8.767,0,0,0,68.408,6.676a13.973,13.973,0,0,0-2-1.335,8.3,8.3,0,0,0-5.676-.5l-.5-1.5a4.828,4.828,0,0,0-6.343-3L18.66,13.021a4.886,4.886,0,0,0-3,6.343v.167l.835,2.17a9.25,9.25,0,0,0-4.842,11.352,9.495,9.495,0,0,0,7.679,6.176l7.846.835a21.74,21.74,0,0,0,10.851,4.173l5.509.5,1,2.5A4.972,4.972,0,0,0,42.2,50.582L41.03,56.258.3,72.784l1.169,3.172,23.371-9.348,5.676,17.027ZM80.26,89.145l.334,1L59.226,98.66l-.5-1a2.315,2.315,0,0,1,.334-1.836l5.676-5.342,7.178-2.337h6.678a1.675,1.675,0,0,1,1.669,1ZM69.744,85.138l-6.01,2L61.564,80.8a3.711,3.711,0,0,0,2.67-.5l2.838-1.335Zm-4.508-43.07a1.657,1.657,0,0,1,2.171.835l1.335,3.506-8.18,2.671,1,3.172,8.18-2.671,2,5.342L63.9,57.593l1,3.172,8.013-2.671,2,5.342-7.679,2.5,1,3.172,7.846-2.671.835,2.17a1.473,1.473,0,0,1-.835,2L62.9,77.125a2.116,2.116,0,0,1-1,.167L50.546,75.956l-6.177-18.53,1.169-6.177a1.766,1.766,0,0,1,1-1.169ZM65.069,8.346a5.531,5.531,0,0,1,2.838,7.179,5.849,5.849,0,0,1-.835,1.335l-2,2.5a24.948,24.948,0,0,0-1-4.841L61.9,8.012a6.671,6.671,0,0,1,3.172.333ZM14.987,32.218a5.751,5.751,0,0,1,2.838-7.179l2.337,5.677A24.185,24.185,0,0,0,23.5,36.392L20,36.058a5.584,5.584,0,0,1-5.008-3.839Zm23.706,8.847A18.244,18.244,0,0,1,23.334,29.547l-4.34-11.018a1.656,1.656,0,0,1,.835-2.17L55.053,3.672a1.843,1.843,0,0,1,1.336,0,1.711,1.711,0,0,1,.835,1L60.9,15.692A18.35,18.35,0,0,1,57.39,33.386L52.215,39.4l1.5,4.006-6.01,2.5-1.669-4.173ZM28.009,65.272l3.839-1.5,4.173,12.688,3.172-1-4.34-13.021,6.678-2.671,5.676,16.861L33.685,82.3Zm0,0" transform="translate(0 0)" fill="#004b28"/>
        <path id="Path_11" data-name="Path 11" d="M363.843,57.694v1.669h3.339V57.694a8.266,8.266,0,0,1,8.347-8.347V46.008a8.266,8.266,0,0,1-8.347-8.347V35.992h-3.339v1.669a8.265,8.265,0,0,1-8.347,8.347v3.339A8.266,8.266,0,0,1,363.843,57.694Zm1.669-14.023a11.5,11.5,0,0,0,4.006,4.006,11.514,11.514,0,0,0-4.006,4.007,11.513,11.513,0,0,0-4.006-4.007A11.5,11.5,0,0,0,365.512,43.671Zm0,0" transform="translate(-281.078 -28.481)" fill="#004b28"/>
        <path id="Path_12" data-name="Path 12" d="M11.843,217.694v1.669h3.339v-1.669a8.266,8.266,0,0,1,8.347-8.347v-3.339a8.266,8.266,0,0,1-8.347-8.347v-1.669H11.843v1.669A8.265,8.265,0,0,1,3.5,206.008v3.339A8.266,8.266,0,0,1,11.843,217.694Zm1.669-14.023a11.5,11.5,0,0,0,4.006,4.006,11.513,11.513,0,0,0-4.006,4.007,11.513,11.513,0,0,0-4.006-4.007,11.5,11.5,0,0,0,4.006-4.006Zm0,0" transform="translate(-2.532 -155.093)" fill="#004b28"/>
        <path id="Path_13" data-name="Path 13" d="M399.182,197.661v-1.669h-3.339v1.669a8.265,8.265,0,0,1-8.347,8.347v3.339a8.266,8.266,0,0,1,8.347,8.347v1.669h3.339v-1.669a8.266,8.266,0,0,1,8.347-8.347v-3.339A8.266,8.266,0,0,1,399.182,197.661Zm-1.669,14.024a11.513,11.513,0,0,0-4.006-4.007,11.5,11.5,0,0,0,4.006-4.006,11.5,11.5,0,0,0,4.006,4.006A11.513,11.513,0,0,0,397.512,211.685Zm0,0" transform="translate(-306.401 -155.093)" fill="#004b28"/>
        <path id="Path_14" data-name="Path 14" d="M236.631,61.361l2.337,2.337c9.182-9.182.668-23.2.167-23.706L236.3,41.829c.167,0,7.679,12.187.334,19.532Zm0,0" transform="translate(-186.753 -31.647)" fill="#004b28"/>
      </g>
    </g>
    <g id="Group_15" data-name="Group 15" transform="translate(-737 10)">
      <text id="_37" data-name="37" transform="translate(1474 860)" font-size="59" font-family="SFProDisplay-Medium, SF Pro Display" font-weight="500"><tspan x="13.464" y="56">37</tspan></text>
      <text id="CLASE" transform="translate(1474 930)" font-size="27" font-family="SFProDisplay-Light, SF Pro Display" font-weight="300"><tspan x="3.281" y="26">CLASE</tspan></text>
      <rect id="Rectangle_10" data-name="Rectangle 10" width="103" height="103" transform="translate(1561 860)" fill="#fff"/>
      <g id="Mask_Group_2" data-name="Mask Group 2" transform="translate(5)" clip-path="url(#clip-path)">
        <g id="school" transform="translate(1557.567 856.567)">
          <path id="Path_15" data-name="Path 15" d="M54.933,53.217a10.3,10.3,0,1,0-10.3-10.3A10.3,10.3,0,0,0,54.933,53.217Zm0-17.167a6.867,6.867,0,1,1-6.867,6.867A6.867,6.867,0,0,1,54.933,36.05Z" fill="#004b28"/>
          <path id="Path_16" data-name="Path 16" d="M54.933,44.633H56.65a1.717,1.717,0,0,0,0-3.433V39.483a1.717,1.717,0,0,0-3.433,0v3.433A1.717,1.717,0,0,0,54.933,44.633Z" fill="#004b28"/>
          <path id="Path_17" data-name="Path 17" d="M68.667,65.233V58.367A1.717,1.717,0,0,0,66.95,56.65H42.917A1.717,1.717,0,0,0,41.2,58.367v6.867a1.717,1.717,0,0,0,1.717,1.717H66.95A1.717,1.717,0,0,0,68.667,65.233Zm-3.433-1.717h-20.6V60.083h20.6Z" fill="#004b28"/>
          <path id="Path_18" data-name="Path 18" d="M15.45,56.65H29.183a1.717,1.717,0,0,0,0-3.433V41.2a1.717,1.717,0,0,0-1.717-1.717h-10.3A1.717,1.717,0,0,0,15.45,41.2V53.217a1.717,1.717,0,0,0,0,3.433Zm3.433-13.733H25.75v10.3H18.883Z" fill="#004b28"/>
          <path id="Path_19" data-name="Path 19" d="M29.183,73.817V61.8a1.717,1.717,0,0,0-1.717-1.717h-10.3A1.717,1.717,0,0,0,15.45,61.8V73.817a1.717,1.717,0,0,0,0,3.433H29.183a1.717,1.717,0,0,0,0-3.433Zm-10.3-10.3H25.75v10.3H18.883Z" fill="#004b28"/>
          <path id="Path_20" data-name="Path 20" d="M29.183,94.417V82.4a1.717,1.717,0,0,0-1.717-1.717h-10.3A1.717,1.717,0,0,0,15.45,82.4V94.417a1.717,1.717,0,0,0,0,3.433H29.183a1.717,1.717,0,0,0,0-3.433Zm-10.3-10.3H25.75v10.3H18.883Z" fill="#004b28"/>
          <path id="Path_21" data-name="Path 21" d="M80.683,56.65H94.417a1.717,1.717,0,0,0,0-3.433V41.2A1.717,1.717,0,0,0,92.7,39.483H82.4A1.717,1.717,0,0,0,80.683,41.2V53.217a1.717,1.717,0,0,0,0,3.433Zm3.433-13.733h6.867v10.3H84.117Z" fill="#004b28"/>
          <path id="Path_22" data-name="Path 22" d="M80.683,77.25H94.417a1.717,1.717,0,0,0,0-3.433V61.8A1.717,1.717,0,0,0,92.7,60.083H82.4A1.717,1.717,0,0,0,80.683,61.8V73.817a1.717,1.717,0,0,0,0,3.433Zm3.433-13.733h6.867v10.3H84.117Z" fill="#004b28"/>
          <path id="Path_23" data-name="Path 23" d="M80.683,97.85H94.417a1.717,1.717,0,0,0,0-3.433V82.4A1.717,1.717,0,0,0,92.7,80.683H82.4A1.717,1.717,0,0,0,80.683,82.4V94.417a1.717,1.717,0,0,0,0,3.433Zm3.433-13.733h6.867v10.3H84.117Z" fill="#004b28"/>
          <path id="Path_24" data-name="Path 24" d="M104.717,34.333a1.717,1.717,0,0,0,0-3.433H74.375L56.65,18.009V14.043l8.3,1.383a1.717,1.717,0,0,0,2-1.693V6.867a1.717,1.717,0,0,0-1.434-1.693l-10.3-1.717v0a1.707,1.707,0,0,0-2,1.692V18.009L35.492,30.9H5.15a1.717,1.717,0,1,0,0,3.433H6.867V103H5.15a1.717,1.717,0,1,0,0,3.433h99.567a1.717,1.717,0,0,0,0-3.433H103V34.333ZM53.217,103H46.35V84.117a8.6,8.6,0,0,1,6.867-8.411ZM56.65,75.706a8.6,8.6,0,0,1,6.867,8.411V103H56.65ZM54.933,72.1A12.03,12.03,0,0,0,42.917,84.117V103h-5.15V33.491L54.933,21.006,72.1,33.491V103H66.95V84.117A12.03,12.03,0,0,0,54.933,72.1Zm8.583-60.393L56.65,10.562V7.177l6.867,1.144ZM10.3,34.333H34.333V103H10.3ZM99.567,103H75.533V34.333H99.567Z" fill="#004b28"/>
        </g>
      </g>
    </g>
    <g id="Group_16" data-name="Group 16" transform="translate(-408 10)">
      <text id="_69" data-name="69" transform="translate(1422 860)" font-size="59" font-family="SFProDisplay-Medium, SF Pro Display" font-weight="500"><tspan x="61.431" y="56">69</tspan></text>
      <text id="PROFESORI" transform="translate(1422 930)" font-size="27" font-family="SFProDisplay-Light, SF Pro Display" font-weight="300"><tspan x="0.567" y="26">PROFESORI</tspan></text>
      <g id="Mask_Group_3" data-name="Mask Group 3" transform="translate(6)" clip-path="url(#clip-path)">
        <g id="teachers" transform="translate(1559.339 858.339)">
          <path id="Path_25" data-name="Path 25" d="M8.306,48.177h3.323V51.5H8.306Z" fill="#004b28"/>
          <path id="Path_26" data-name="Path 26" d="M14.952,48.177H29.9V51.5H14.952Z" fill="#004b28"/>
          <path id="Path_27" data-name="Path 27" d="M100.282,37.725a9.763,9.763,0,0,0-3.525-1.46l-5.386-1.078V32.315a9.947,9.947,0,0,0,3.171-5.735h1.812a4.99,4.99,0,0,0,4.984-4.984,4.934,4.934,0,0,0-1.128-3.118,10.856,10.856,0,0,0,1.128-4.8V13.29a6.654,6.654,0,0,0-5.931-6.607A18.346,18.346,0,0,0,83.065,1.676V1.661H1.661V58.145H73.1V69.462a9.965,9.965,0,0,0-4.984,8.619,22.89,22.89,0,0,0,2.4,10.184l.238.475-3.607,1.2a8.281,8.281,0,0,0-4.019,2.909,8.281,8.281,0,0,0-4.019-2.909l-3.607-1.2.238-.475a22.89,22.89,0,0,0,2.4-10.184,9.968,9.968,0,1,0-19.935,0,22.89,22.89,0,0,0,2.4,10.184l.238.475-3.607,1.2a8.274,8.274,0,0,0-3.755,2.6A8.292,8.292,0,0,0,30.3,89.71l-2.053-1.027v-10.6a9.968,9.968,0,1,0-19.935,0v10.6L6.253,89.71a8.262,8.262,0,0,0-4.592,7.429v7.522H94.694v-6.84a8.279,8.279,0,0,0-3.1-6.451h4.763V70.852a5.756,5.756,0,0,0,2.492.583,5.821,5.821,0,0,0,5.815-5.815V45.9a9.812,9.812,0,0,0-4.379-8.18Zm-4.176,1.8a6.51,6.51,0,0,1,5.233,6.383v12.24H96.355V47.2a3.983,3.983,0,0,1,1.175-2.836L95.18,42.017A7.284,7.284,0,0,0,93.032,47.2V61.468H76.419V47.2a7.284,7.284,0,0,0-2.148-5.187l-2.349,2.351a3.96,3.96,0,0,1,.694.97l-3.343.836a11.566,11.566,0,0,1-10.435-2.6l-5.451-4.906,4.334-4.336,8.341,7.414,5.414-1.8a6.614,6.614,0,0,1,.782-.208l6.368-1.274.148.44a6.271,6.271,0,0,0,11.9,0l.146-.44Zm-48.618-6.16a2.937,2.937,0,0,1,1.965-5.12h.3a2.922,2.922,0,0,1,1.95.743l3.534,3.14-4.321,4.321Zm40.56,2.916-.523,1.577a2.95,2.95,0,0,1-5.6,0L81.4,36.278V34.294a9.784,9.784,0,0,0,6.645,0Zm3.323-11.37a6.645,6.645,0,1,1-13.29,0V19.852a12.867,12.867,0,0,0,6.645-2.695,12.881,12.881,0,0,0,6.645,2.695Zm4.984-1.65H94.694V19.935h1.661a1.661,1.661,0,1,1,0,3.323ZM94.012,9.968h.681a3.326,3.326,0,0,1,3.323,3.323v.384a7.556,7.556,0,0,1-.65,3.043,4.953,4.953,0,0,0-1.012-.1H94.694V16.6H92.747A9.614,9.614,0,0,1,85.9,13.765l-1.175-1.176-1.175,1.176A9.617,9.617,0,0,1,76.705,16.6H74.758v.012H73.1a4.953,4.953,0,0,0-1.012.1,7.556,7.556,0,0,1-.65-3.043v-.341a7.258,7.258,0,0,1,3.5-6.188A15.163,15.163,0,0,1,93.527,9.489ZM73.1,23.258a1.661,1.661,0,0,1,0-3.323h1.661v3.323ZM4.984,54.823V4.984H72.238a10.6,10.6,0,0,0-4.125,8.35v.341a10.856,10.856,0,0,0,1.128,4.8A4.931,4.931,0,0,0,68.113,21.6,4.99,4.99,0,0,0,73.1,26.581h1.812a9.947,9.947,0,0,0,3.171,5.735v2.871L71.608,36.48a9.966,9.966,0,0,0-1.181.312l-3.59,1.2L53.911,26.5a6.242,6.242,0,0,0-4.158-1.582h-.3a6.259,6.259,0,0,0-4.186,10.911L56.617,46.046A14.761,14.761,0,0,0,70.08,49.4l3.017-.753v6.178Zm73.1,16.613a6.652,6.652,0,0,1,6.645,6.645,19.558,19.558,0,0,1-2.053,8.7l-.635,1.269H74.123l-.635-1.269a19.558,19.558,0,0,1-2.053-8.7A6.652,6.652,0,0,1,78.081,71.435Zm-29.9,0a6.652,6.652,0,0,1,6.645,6.645,19.558,19.558,0,0,1-2.053,8.7l-.635,1.269H44.22l-.635-1.269a19.558,19.558,0,0,1-2.053-8.7A6.652,6.652,0,0,1,48.177,71.435ZM11.629,78.081a6.645,6.645,0,0,1,13.29,0V94.694H11.629Zm19.935,23.258H4.984v-4.2a4.957,4.957,0,0,1,2.754-4.457l.568-.284v5.618H28.242V92.4l.568.284a4.959,4.959,0,0,1,2.754,4.457v4.2Zm29.9,0H34.887V97.822A4.977,4.977,0,0,1,38.3,93.094l5.168-1.723h9.428l5.168,1.723a4.977,4.977,0,0,1,3.407,4.728Zm29.9,0H64.79V97.822A4.977,4.977,0,0,1,68.2,93.094l5.168-1.723H82.8l5.168,1.723a4.977,4.977,0,0,1,3.407,4.728Zm1.661-13.29H85.738a22.9,22.9,0,0,0,2.311-9.968,9.913,9.913,0,0,0-11.629-9.818V64.79H93.032V88.048Zm5.815-19.935a2.5,2.5,0,0,1-2.492-2.492V61.468h4.984v4.153A2.5,2.5,0,0,1,98.847,68.113Z" fill="#004b28"/>
          <path id="Path_28" data-name="Path 28" d="M34.887,18.274H31.565v6.645H28.242V11.629H24.919v13.29H21.6V14.952H18.274v9.968H14.952V18.274H11.629v6.645H8.306v3.323h29.9V24.919H34.887Z" fill="#004b28"/>
          <path id="Path_29" data-name="Path 29" d="M8.306,31.565h3.323v3.323H8.306Z" fill="#004b28"/>
          <path id="Path_30" data-name="Path 30" d="M14.952,31.565H31.565v3.323H14.952Z" fill="#004b28"/>
          <path id="Path_31" data-name="Path 31" d="M34.887,31.565H38.21v3.323H34.887Z" fill="#004b28"/>
        </g>
      </g>
    </g>
  </g>
</svg>
