<svg xmlns="http://www.w3.org/2000/svg" xmlns:xlink="http://www.w3.org/1999/xlink" width="50" height="50" viewBox="0 0 50 50">
  <defs>
    <clipPath id="clip-path">
      <rect id="Rectangle_13" data-name="Rectangle 13" width="50" height="50" transform="translate(1502 1150)" fill="#fff"/>
    </clipPath>
  </defs>
  <g id="Mask_Group_5" data-name="Mask Group 5" transform="translate(-1502 -1150)" clip-path="url(#clip-path)">
    <g id="instagram1" transform="translate(1502 1150)">
      <path id="Path_36" data-name="Path 36" d="M7.324,50H42.676A7.332,7.332,0,0,0,50,42.676V7.324A7.332,7.332,0,0,0,42.676,0H7.324A7.332,7.332,0,0,0,0,7.324V42.676A7.332,7.332,0,0,0,7.324,50ZM2.93,7.324A4.4,4.4,0,0,1,7.324,2.93H42.676A4.4,4.4,0,0,1,47.07,7.324V42.676a4.4,4.4,0,0,1-4.395,4.395H7.324A4.4,4.4,0,0,1,2.93,42.676Zm0,0" fill="#fff"/>
      <path id="Path_37" data-name="Path 37" d="M25.709,38.893A13.184,13.184,0,1,0,12.525,25.709,13.2,13.2,0,0,0,25.709,38.893Zm0-23.437A10.254,10.254,0,1,1,15.455,25.709,10.265,10.265,0,0,1,25.709,15.455Zm0,0" transform="translate(-0.709 -0.709)" fill="#fff"/>
      <path id="Path_38" data-name="Path 38" d="M41.764,15.1a4.395,4.395,0,1,0-4.395-4.395A4.4,4.4,0,0,0,41.764,15.1Zm0-5.859A1.465,1.465,0,1,1,40.3,10.709,1.467,1.467,0,0,1,41.764,9.244Zm0,0" transform="translate(-2.115 -0.357)" fill="#fff"/>
    </g>
  </g>
</svg>
