<svg id="istorie_hover_r" xmlns="http://www.w3.org/2000/svg" width="230" height="230" viewBox="0 0 230 230">
  <g id="Component_1_31" data-name="Component 1 – 31">
    <g id="Group_12" data-name="Group 12">
      <g id="Rectangle_5" data-name="Rectangle 5" fill="none" stroke="#007d43" stroke-width="5">
        <rect width="230" height="230" stroke="none"/>
        <rect x="2.5" y="2.5" width="225" height="225" fill="none"/>
      </g>
    </g>
    <text id="Text" transform="translate(20 115)" fill="#007d43" font-size="21" font-family="SegoeUI, Segoe UI" opacity="0"><tspan x="0" y="23">Text</tspan></text>
    <path id="Path_83" data-name="Path 83" d="M-49.731-17.615V0h5.92C-38.574,0-35.5-3.259-35.5-8.813s-3.088-8.8-8.313-8.8Zm2.2,1.978h3.577c4,0,6.213,2.441,6.213,6.848,0,4.37-2.222,6.812-6.213,6.812h-3.577ZM-33,0h2.124V-12.7H-33Zm1.062-14.832A1.331,1.331,0,0,0-30.6-16.15a1.323,1.323,0,0,0-1.331-1.318,1.321,1.321,0,0,0-1.318,1.318A1.329,1.329,0,0,0-31.934-14.832ZM-28,0h2.124V-7.471a3.239,3.239,0,0,1,3.308-3.564c1.953,0,2.917,1.123,2.917,3.174V0h2.124V-8.24c0-2.881-1.611-4.675-4.395-4.675a4.248,4.248,0,0,0-4.028,2.246H-26V-12.7h-2ZM-9.595,0h2.124V-12.7H-9.595Zm1.062-14.832A1.331,1.331,0,0,0-7.2-16.15a1.323,1.323,0,0,0-1.331-1.318A1.321,1.321,0,0,0-9.851-16.15,1.329,1.329,0,0,0-8.533-14.832Zm3.711,5.64c0,1.733,1.1,2.881,3.333,3.455l2.234.574C2.173-4.785,2.7-4.3,2.7-3.394c0,1.147-1.062,1.88-2.783,1.88S-2.808-2.222-3.04-3.54H-5.164C-4.944-1.294-3,.22-.22.22c2.966,0,5.054-1.562,5.054-3.772,0-1.868-.928-2.8-3.491-3.442L-.623-7.471c-1.44-.366-2.112-.952-2.112-1.831,0-1.111,1.025-1.88,2.576-1.88s2.551.757,2.7,1.978H4.565c-.1-2.148-2.026-3.711-4.651-3.711C-2.881-12.915-4.822-11.365-4.822-9.192ZM7.715-15.759V-12.7H5.823v1.746H7.715V-3.3C7.715-.854,8.618.1,10.95.1A7.567,7.567,0,0,0,12.292,0V-1.782a8.265,8.265,0,0,1-.879.061c-1.086,0-1.575-.525-1.575-1.685V-10.95H12.3V-12.7H9.839v-3.064ZM19.458.22c3.5,0,5.872-2.527,5.872-6.567s-2.368-6.567-5.872-6.567S13.574-10.4,13.574-6.348,15.942.22,19.458.22Zm0-1.868c-2.246,0-3.723-1.709-3.723-4.7s1.477-4.7,3.723-4.7,3.711,1.709,3.711,4.7S21.7-1.648,19.458-1.648ZM27.466,0H29.59V-7.91a2.689,2.689,0,0,1,2.722-2.979,4.275,4.275,0,0,1,1.135.122V-12.83a5.472,5.472,0,0,0-.854-.085,3.109,3.109,0,0,0-3.076,2.295h-.049V-12.7h-2Zm7.813,0H37.4V-12.7H35.278ZM36.34-14.832a1.331,1.331,0,0,0,1.331-1.318,1.323,1.323,0,0,0-1.331-1.318,1.321,1.321,0,0,0-1.318,1.318A1.329,1.329,0,0,0,36.34-14.832ZM44.458-1.587c-1.526,0-2.539-.793-2.539-2S42.9-5.542,44.6-5.652L48-5.859v1.038A3.341,3.341,0,0,1,44.458-1.587ZM43.982.22a4.63,4.63,0,0,0,4.077-2.4h.049V0h2.014V-8.777c0-2.527-1.88-4.138-4.858-4.138-3,0-4.883,1.685-5.029,3.882h2.051a2.664,2.664,0,0,1,2.93-2.014c1.758,0,2.783.928,2.783,2.478v1.062L44.36-7.3c-2.93.171-4.6,1.538-4.6,3.711C39.758-1.306,41.455.22,43.982.22ZM-34.552,30h2.124V12.385h-2.124Zm5.1,0h2.124V17.3h-2.124Zm1.062-14.832a1.331,1.331,0,0,0,1.331-1.318,1.323,1.323,0,0,0-1.331-1.318,1.321,1.321,0,0,0-1.318,1.318A1.329,1.329,0,0,0-28.387,15.168Zm14.478,6.3a5.056,5.056,0,0,0-5.334-4.382c-3.5,0-5.835,2.563-5.835,6.567,0,4.089,2.344,6.567,5.859,6.567a5.055,5.055,0,0,0,5.334-4.309h-2.087a3.063,3.063,0,0,1-3.235,2.441c-2.2,0-3.711-1.746-3.711-4.7,0-2.881,1.489-4.7,3.687-4.7a3.12,3.12,0,0,1,3.247,2.515Zm7.068-2.539a3.4,3.4,0,0,1,3.381,3.638h-6.9A3.568,3.568,0,0,1-6.842,18.928Zm3.333,7.434a3.065,3.065,0,0,1-3.149,2.014c-2.283,0-3.711-1.6-3.711-4.028v-.122h9.106V23.42c0-3.845-2.112-6.335-5.542-6.335-3.5,0-5.75,2.673-5.75,6.616,0,3.992,2.209,6.519,5.847,6.519,2.771,0,4.919-1.636,5.286-3.857ZM11.3,17.3H9.174v7.458c0,2.161-1.245,3.577-3.308,3.577-1.965,0-2.93-1.111-2.93-3.174V17.3H.812v8.24c0,2.881,1.624,4.675,4.395,4.675a4.174,4.174,0,0,0,4.028-2.283h.049V30H11.3ZM14.154,30h2.124V12.385H14.154ZM29.572,17.3H27.448v7.458c0,2.161-1.245,3.577-3.308,3.577-1.965,0-2.93-1.111-2.93-3.174V17.3H19.086v8.24c0,2.881,1.624,4.675,4.395,4.675a4.174,4.174,0,0,0,4.028-2.283h.049V30h2.014ZM32.428,30h2.124V17.3H32.428ZM33.49,15.168a1.318,1.318,0,1,0-1.318-1.318A1.331,1.331,0,0,0,33.49,15.168Z" transform="translate(115.231 109.115)" fill="#007d43" stroke="#007d43" stroke-width="0.5"/>
  </g>
  <path id="Path_8" data-name="Path 8" d="M29.132,29.132H0V24.009H24.009V0h5.123Z" transform="translate(190.87 190.868)" fill="#007d43"/>
</svg>
