<svg xmlns="http://www.w3.org/2000/svg" xmlns:xlink="http://www.w3.org/1999/xlink" width="284" height="100" viewBox="0 0 284 100">
  <defs>
    <clipPath id="clip-path">
      <rect id="Rectangle_15" data-name="Rectangle 15" width="284" height="100" transform="translate(365)" fill="#fff"/>
    </clipPath>
  </defs>
  <g id="logo_refreshed1" transform="translate(-365)" clip-path="url(#clip-path)">
    <g id="logo" transform="translate(365 20.014)">
      <g id="Group_68" data-name="Group 68" transform="translate(1.056 35.753)">
        <path id="Path_41" data-name="Path 41" d="M8.651,50.707l-.2-.282-.279.141-.224.452-.363.085a.868.868,0,0,1-.224.31,1.415,1.415,0,0,1-.559.141l-.251.423-.336.113-.084.142H6l-.084.113-.251-.085-.14.226-.336.085-.084.2-.279-.056-.307.338-.279-.056-.251.226-.167-.057v.17q0,.113-.139.113a.972.972,0,0,0-.265.029c-.065.018-.126.038-.182.056a1.062,1.062,0,0,1-.391.057.494.494,0,0,0-.224.057.856.856,0,0,0-.126.1.132.132,0,0,1-.1.043c-.038,0-.094-.057-.167-.169l-.307-.254L2,53.079l-.167-.423a9.135,9.135,0,0,1,.112-1,.748.748,0,0,1,.14-.353l.251-.4.028-.4.307-1.157.307-.367.028-.254h.138l.028-.705.251-.423.084-.367.279-.254.112-.537.364-.4.167-.818.447-.9v-.423l.307-.424.028-.367.139-.2v-.113h.112l.084-.4.419-.677.056-.565.307-.423v-.226l.112-.367.447-.762-.084-.141.559-1.213.251-.226v-.226l.14-.621-.419-.226-.419.4-.112-.113-.336.79a.294.294,0,0,1-.224.282.228.228,0,0,1-.1.028.22.22,0,0,0-.1.029l.167.31-.11.31-.028.282-.336.677-.14.593-.307.31v.282H5.158l.056.254L5.1,41.2l-.028.31a.494.494,0,0,0-.07.141.242.242,0,0,1-.07.113.8.8,0,0,0-.139.169.36.36,0,0,0-.084.17,3.193,3.193,0,0,0-.056.4l-.2.339-.028.254-.14.113a1.091,1.091,0,0,0-.084.466.853.853,0,0,1-.251.607l-.112.113a.19.19,0,0,0-.056.141.383.383,0,0,0,.028.169l-.25.425-.084.465a.643.643,0,0,1-.084.24.2.2,0,0,1-.126.1A.246.246,0,0,0,3.146,46l-.167.706v.2l-.167.085v.254l-.335.677L2,49.353l-.307.451a.434.434,0,0,1,.112.254.324.324,0,0,1-.14.254.347.347,0,0,0-.14.282l.028.226-.307.621v.537l-.14.451.084.17-.056.451.084.338-.056.141q.2.481.279.677a.483.483,0,0,0,.2.254A1.949,1.949,0,0,0,2.643,55l.223-.085.084-.169h.2l.279-.17.475-.056a.436.436,0,0,1,.07-.212.131.131,0,0,1,.1-.043h.2a.049.049,0,0,0,.056-.057l.167-.338.307.057v-.2l.336-.057.084-.254.167.057.056-.17h.2l.251-.226q.475-.113.475-.226a.257.257,0,0,0-.028-.113l.307-.141.056-.113.056-.057.056.029a.383.383,0,0,0,.251-.141,3.581,3.581,0,0,0,.237-.282q.153-.2.461-.537h.223l.028-.141.336-.169.167-.367h0Z" transform="translate(-1.106 -35.753)" fill="#fff"/>
        <path id="Path_42" data-name="Path 42" d="M18.6,36.4l-.447-.649-.279.226a1.384,1.384,0,0,0-.2.17.309.309,0,0,0-.112.2.056.056,0,0,0,.014.043.059.059,0,0,1,.014.043l-.279.085L17.2,36.8l-.14-.028a1.669,1.669,0,0,1-.224.451,1.14,1.14,0,0,1-.447.4,1.759,1.759,0,0,1-.167.353,3.01,3.01,0,0,1-.237.338,1.387,1.387,0,0,1-.238.24.407.407,0,0,1-.139.085.72.72,0,0,1-.293.48c-.158.113-.312.226-.461.338l-.028.367h-.167l-.028.226a.738.738,0,0,0-.223.367v.029c0,.018.037.047.112.085l.224.113.587-.424.223-.367.279-.028.2-.226.028-.367.363-.367.336-.141a1.436,1.436,0,0,0,.224-.268c.037-.066.065-.117.084-.155l.028-.057a.09.09,0,0,1,.056-.085l.084-.113a.345.345,0,0,1,.251-.113l.251-.338.559-.282.028-.226.223-.254Zm0,14.814-.084-.509h-.279l-.084.31-.251.029-.14.31-.307.085-.112.113v.028a.083.083,0,0,1-.028.057.671.671,0,0,1-.336.085l-.419.254-.5.169-.363.424h-.363l-.643.367a.921.921,0,0,0-.419.057c-.056.038-.084.066-.084.085a.651.651,0,0,1-.224.226.829.829,0,0,1-.223.1,3.606,3.606,0,0,0-.391.155l-.447.057-.279.113-.419-.113-.056-.113-.224-.649-.028-.4.084-.141-.056-.423.167-.17.028-.282.167-.085-.056-.31.112-.254v-.31l.14-.2.167-.988.167-.254.2-.565L12.976,48h.112l-.028-.423.447-.423-.084-.226.112-.282a.245.245,0,0,0,.084-.17.319.319,0,0,0-.014-.1.416.416,0,0,1-.014-.127l.14-.254v-.254l.223-.254-.056-.31.391-.367.056-.085a.285.285,0,0,0,.028-.127.278.278,0,0,1,.028-.127c.037-.094.07-.184.1-.268a.854.854,0,0,1,.126-.24l-.056-.17.084-.254-.167-.029-.167-.423a.226.226,0,0,0-.167-.113.321.321,0,0,0-.224.113l-.084.085c-.018.113-.037.207-.056.282a1.294,1.294,0,0,1-.1.254c-.046.094-.108.212-.182.353s-.177.324-.307.551l-.336.79v.028l.028.085V45.6a.918.918,0,0,1-.014.142.411.411,0,0,1-.126.2,2.984,2.984,0,0,1-.07.536,1.655,1.655,0,0,1-.182.367l-.139.565-.251.508a1.214,1.214,0,0,0-.307.762,5.157,5.157,0,0,1-.112.818l-.279.762v.48l-.336.762.084.452a.5.5,0,0,0-.056.141.059.059,0,0,1-.014.042.056.056,0,0,0-.014.043.221.221,0,0,1-.014.071c-.01.028-.051.061-.126.1a.9.9,0,0,1,.056.254,1.726,1.726,0,0,1-.056.282.851.851,0,0,0-.028.254,1.4,1.4,0,0,0,.084.423l.084.4.336.282.167.4a.723.723,0,0,0,.531.226h.139a.956.956,0,0,0,.405-.085c.121-.056.247-.113.377-.169a1.422,1.422,0,0,1,.2-.085.513.513,0,0,1,.167-.029.243.243,0,0,1,.2.113l.336-.057.084-.282h.559v-.028H14.6a.246.246,0,0,1,.084-.17,1.887,1.887,0,0,1,.559-.367l.028-.17.391-.056.112-.2.391-.085a.316.316,0,0,1,.167-.31.736.736,0,0,1,.336-.085h.028l.223-.282h.167l.112-.338.391-.029.251-.2.251-.4.419-.113h0Z" transform="translate(-1.55 -35.753)" fill="#fff"/>
        <path id="Path_43" data-name="Path 43" d="M28.785,50.171v-.057q0-.282-.224-.282a.623.623,0,0,0-.2.028l-.112.254h-.167l-.168.282-.056.254-.279.254a.6.6,0,0,0-.182.057.393.393,0,0,0-.1.141l-.112.17-.224.169-.139.31-.251.226c-.019.094-.056.151-.112.169a.675.675,0,0,1-.251.029h-.028a.462.462,0,0,1-.056.254,1.33,1.33,0,0,1-.279.254l-.391.141-.251.282-.391.085-.084.169-.224.028-.084.17-.447.085-.363.226v.057c0,.188-.056.282-.167.282q-.392,0-.685.029c-.2.018-.368.038-.516.056h-.224a.591.591,0,0,1-.419-.113.916.916,0,0,1-.224.057c-.13,0-.2-.094-.2-.282v-.057h-.112a.64.64,0,0,0-.14-.423l-.139-.2.028-.423-.14-.424-.028-.4.2-.734-.112-.2c.074,0,.112-.046.112-.141a1.134,1.134,0,0,0,.14-.169.465.465,0,0,0,.056-.254.476.476,0,0,0-.014-.113.442.442,0,0,1-.014-.113l.14-.113V50.03l.167-.2-.028-.226a.625.625,0,0,1,.112-.17l.139-.141a.289.289,0,0,0,.07-.1c.009-.029.023-.089.042-.184l.028-.338.2-.565.364-.31.2-.451v-.113l.14-.226.028-.621c.148-.038.228-.1.237-.184A.3.3,0,0,1,22.975,46a.989.989,0,0,0,.167-.2.4.4,0,0,0,.028-.169v-.113l.25-.2a.494.494,0,0,0,.2-.2c.037-.075.074-.16.112-.254q.419-.451.419-.593c0-.038-.01-.056-.028-.056a.164.164,0,0,0-.112-.029h-.028l-.028.029.559-.621.028-.254.307-.057q.111-.451.419-.451a.662.662,0,0,1,.531.282V43.06c0-.094.009-.141.028-.141h.028c.074.038.112.122.112.254l.167.649-.056.367a.221.221,0,0,1,.182.057.571.571,0,0,1,.042.282v.48c0,.075.009.123.028.141l.056.2-.028.48-.084.31-.167.141.14.17-.14.226.2.4.112.4.475.113L27,46.927l.056-.141-.028-.31.112-.2.112.057-.167-.705h-.028A.5.5,0,0,1,27,45.489a.391.391,0,0,1,.139-.254q0-.2-.112-.226l-.14-.677-.112-.338.056-.282-.084-.254v-.2l-.167-.029-.224-.846a.189.189,0,0,0-.14-.057.51.51,0,0,1-.335-.367l-.14.028-.224-.085-.224.028a.1.1,0,0,0-.112-.113.862.862,0,0,0-.293.127,2.388,2.388,0,0,0-.377.324.415.415,0,0,1-.112.085,1.89,1.89,0,0,1-.251.085.08.08,0,0,0-.028.056,1.245,1.245,0,0,1-.14.3.9.9,0,0,1-.251.24l-.2.424c-.131.188-.237.338-.322.451a1.976,1.976,0,0,0-.182.282,1.523,1.523,0,0,0-.084.2c-.019.057-.037.123-.056.2l-.2.4-.336.367-.475.9-.112.4-.5,1.072L21.155,48l-.279.254.056.31-.167.254.056.282-.307.338.028.537-.167.254.028.282-.224.367-.028.4-.167.537.028.169-.056.254.112.254-.112.17.223.508-.056.338.167.282.056.4.587.451.2.31.168.028.223.254a.484.484,0,0,0,.2.028.855.855,0,0,0,.14-.014.994.994,0,0,1,.167-.014h.056a.149.149,0,0,1,.167.169v.029h.307l.14-.226.2.057h.336v-.141l.7-.141.028-.141.167.057a.531.531,0,0,1,.139-.1.957.957,0,0,1,.279-.071l.139-.2.167.028a.058.058,0,0,1,.042.014.056.056,0,0,0,.042.014.393.393,0,0,0,.265-.113.336.336,0,0,0,.126-.254c0-.038.037-.094.112-.169l.167-.17.251-.028.14-.282.2-.2.14.028.028-.169.391-.085.139-.367.279-.085.084-.141L27.22,52.4l.112-.085-.028-.113h.14l.2-.537L28,51.584l.112-.113v-.056a.922.922,0,0,1,.056-.226.978.978,0,0,1,.084-.184,2.147,2.147,0,0,0,.112-.24l.112-.057.056-.2.251-.2v-.143Z" transform="translate(-1.96 -35.753)" fill="#fff"/>
        <path id="Path_44" data-name="Path 44" d="M40.021,51.554l-.112-.085h-.223l.056.113-.251.057-.112.367-.391-.085-.2.226-.307.113a.427.427,0,0,1-.336.31.645.645,0,0,0-.279.141l-.056.056-.028.057a.922.922,0,0,1-.279.141l-.084.17a.727.727,0,0,1-.391.169l-.251.029.028.085-.167-.057-.224.282a1.447,1.447,0,0,0-.237.028.405.405,0,0,0-.21.085.689.689,0,0,0-.363.085c-.094.057-.2.113-.307.169q-.14.057-.251.113a.617.617,0,0,1-.279.057.3.3,0,0,1-.1-.014.3.3,0,0,0-.1-.015c-.018.094-.1.141-.251.141h-.028a2.084,2.084,0,0,1-.237-.014c-.084-.009-.172-.024-.265-.042a1.7,1.7,0,0,1-.573-.071,2.964,2.964,0,0,1-.545-.324l-.307-.029-.084-.226h-.056l.084-.282c-.149-.094-.234-.178-.251-.254a.22.22,0,0,1-.028-.141.76.76,0,0,1,.014-.155.667.667,0,0,0,.014-.127l-.084-.113.112-.762.14-.537.251-.169c.037,0,.056-.029.056-.085a.3.3,0,0,0-.014-.1.3.3,0,0,1-.014-.1v-.085a1.007,1.007,0,0,1,.112-.451l.112-.424.139-.141.028-.254.447-.2.475.169.726-.057.112-.141.5.17.224-.141.224-.085.028-.17.782-.2a3.324,3.324,0,0,1,.279-.367l.028-.028.028.028a.16.16,0,0,0,.112-.057l.028-.028c.093,0,.148-.014.167-.043a.667.667,0,0,1,.084-.1l.251-.226.167-.282.279-.085.336-.226L38.4,47.1a2.311,2.311,0,0,0,.265-.212c.046-.046.126-.136.237-.268a.92.92,0,0,1,.07-.254.813.813,0,0,1,.153-.2c.093-.094.177-.184.251-.268a.833.833,0,0,0,.167-.324,2.114,2.114,0,0,0,.042-.226,1.021,1.021,0,0,1,.07-.254l-.084-.508.112-.085-.112-.452.224-.2a1.141,1.141,0,0,1-.07-.226.982.982,0,0,1-.014-.169v-.113a.448.448,0,0,1,.056-.2.875.875,0,0,0,.028-.254v-.028a.751.751,0,0,0-.014-.184.8.8,0,0,0-.154-.184c-.037-.038-.065-.056-.084-.056a.078.078,0,0,1-.056-.029.271.271,0,0,0-.14-.056q-.056,0-.112-.113l-.391-.057-.279.057a1.582,1.582,0,0,1-.251.1c-.094.029-.186.061-.279.1l-.251.085a1.141,1.141,0,0,0-.336.155q-.139.1-.307.212a.872.872,0,0,1-.559.4.161.161,0,0,0-.112.057.375.375,0,0,0-.084.127.378.378,0,0,1-.084.127,1.606,1.606,0,0,1-.475.169l-.139.423-.475.17L34.154,45.6l-.2.424-.167.169a2.615,2.615,0,0,1-.1.3c-.028.066-.117.118-.265.156l.028.085.028.028v.085a1.978,1.978,0,0,1-.084.282.089.089,0,0,1-.084.056l-.056-.028-.307.141v-.057c0-.018-.018-.046-.056-.085-.038-.075-.084-.113-.14-.113a.111.111,0,0,0-.084.029l-.419.113c.037.245.07.419.1.522a1.948,1.948,0,0,0,.21.437v.423h-.084a.376.376,0,0,1-.112.3c-.075.066-.121.1-.139.1a1.173,1.173,0,0,1-.056.466.846.846,0,0,1-.279.24,4.8,4.8,0,0,1-.126.466.966.966,0,0,1-.293.409l-.056.508-.2.565-.084.565.224.282-.084.338.139.537a.355.355,0,0,1,.014.169.321.321,0,0,0,.042.2c.037.075.074.151.112.226a1.038,1.038,0,0,0,.2.254l.615.593.754.565h.223a.878.878,0,0,1,.251-.056.227.227,0,0,1,.167.056v.029l.056.028.2-.141.307.085.251-.113h.642L35.355,55h.056a.457.457,0,0,0,.336-.113h.336l.112-.169.391-.142.224-.2a.08.08,0,0,1-.028-.057.115.115,0,0,1,.028-.085.971.971,0,0,1,.112-.1,1.1,1.1,0,0,0,.112-.1h.391l.14-.338q.083-.113.139-.113l.056.029h.084c.037,0,.093-.038.167-.113l.14-.282.307.085q.139,0,.531-.649a.15.15,0,0,0,.167-.113l.028-.085.2.085V52.4l.2-.141.084-.141.167.085L40,51.923l-.084-.226h0Zm-.866-7.986-.028.423-.2.31-.112.621a1.9,1.9,0,0,0-.251.451.88.88,0,0,0-.056.254.11.11,0,0,0,.014.071.059.059,0,0,1,.014.043.167.167,0,0,0-.112.113q-.14.169-.251.324a.963.963,0,0,1-.307.268.255.255,0,0,0-.139.226l-.754.621H36.7v.113l-.251.226-.056.113L36,47.828l-.112.254-.754.254h-.559a1.15,1.15,0,0,1-.475.113.3.3,0,0,1-.224-.085.627.627,0,0,1-.112-.268c-.019-.1-.037-.2-.056-.3h-.028l.028-.169a.935.935,0,0,0,.167-.127,1.3,1.3,0,0,0,.251-.381l.251-.085.056-.254.139-.2c-.037-.038-.056-.066-.056-.085v-.029a.909.909,0,0,1,.056-.1c.018-.029.046-.08.084-.156l.279-.085.084-.282.167-.057a1.308,1.308,0,0,1,.363-.536A.719.719,0,0,1,36,45.033a4.472,4.472,0,0,0,.391-.381,2.029,2.029,0,0,0,.336-.466.116.116,0,0,0,.028-.085l.2-.113a1.645,1.645,0,0,0,.251-.057,1.068,1.068,0,0,0,.14-.056.923.923,0,0,1,.167-.071c.037-.01.1-.024.2-.043a.305.305,0,0,1,.14-.226,2.082,2.082,0,0,1,.265-.141,4.545,4.545,0,0,0,.489-.282l.251.056Z" transform="translate(-2.467 -35.753)" fill="#fff"/>
        <path id="Path_45" data-name="Path 45" d="M58.149,51.751a.085.085,0,0,0-.056-.029.158.158,0,0,0-.112.029l-.167.169h-.167l-.14.367-.419.282a.427.427,0,0,1-.167.056.243.243,0,0,0-.112.029c-.038.018-.056.033-.056.042s-.01.024-.028.043a.366.366,0,0,0-.307.282l-.167-.028a.8.8,0,0,0-.182.184.768.768,0,0,0-.042.324l-.725.169.028.085-.223.169-.811.141-.028.17a2.687,2.687,0,0,0-.475.085.761.761,0,0,0-.153.071.65.65,0,0,0-.126.1c-.075.038-.145.071-.21.1a.21.21,0,0,0-.126.127.372.372,0,0,0-.251-.057h-.112a1.312,1.312,0,0,0-.182.057.348.348,0,0,1-.126.028l-.5.028-.2-.085-.307-.028-.307-.2-.056-.367L51,54.063l.056-.254-.251-.282.084-.423v-.677l.167-.508.167-1.1.167-.621c.13-.038.2-.094.223-.169a2.329,2.329,0,0,0,.028-.452l.223-.254V49.1l.084-.057.084-.254.167-.141v-.254l.224-.338v-.31l.112-.17.224-.085.028-.2.167-.282a.48.48,0,0,1-.028-.141v-.057a.8.8,0,0,1,.056-.1.985.985,0,0,0,.056-.1l.419-.451.084-.338.167-.226.028.057.139-.226h.14L54.1,45.2l.084-.057v-.226h.167a.554.554,0,0,1,.112-.4.652.652,0,0,0,.2-.338v-.028c0,.018-.028,0-.084-.057l-.028-.029a.541.541,0,0,0,.279-.423.426.426,0,0,0-.07-.226c-.046-.075-.089-.141-.126-.2l-.363.226a.537.537,0,0,0-.167-.029.13.13,0,0,0-.14.085l-.615,1.1a.959.959,0,0,0-.2.1.648.648,0,0,0-.14.212.252.252,0,0,0-.112-.029q-.14,0-.251.282l-.364.367v.226l-.391.565-.167.367a.66.66,0,0,0-.5.155,1.272,1.272,0,0,0-.2.268l-.457.367a.383.383,0,0,0-.121.014,1.349,1.349,0,0,0-.177.1l.056.085L50.1,47.8V48c0,.057-.056.085-.169.085h-.168a.131.131,0,0,1-.084.141l-.056.028-.084.057a.366.366,0,0,0-.2.338V48.7h-.028l-.393.367c-.131,0-.205.014-.224.042a.383.383,0,0,0-.028.184,1.266,1.266,0,0,1-.224.2l.028-.141a.638.638,0,0,0-.295.184,1.667,1.667,0,0,0-.127.212.346.346,0,0,1-.28.254h-.028a.245.245,0,0,0-.182.071l-.126.127-.113.029-.168.282-.056-.085-.224.113a3.145,3.145,0,0,1-.169.409,1.437,1.437,0,0,1-.28.3l-.253.423h-.113l-.224.254-1.066.452-.168.282-.14-.057-.337.113-.113.282-.589.367-.393-.028v-.31l-.056-.113.223-.226-.167-.085.224-.2.028-.226.167-.2v-.254l.167-.141.307-.593L44,50.566l.167-.282-.084-.226.139-.085V49.8l.336-.226c0-.094-.019-.15-.056-.169a.594.594,0,0,0,.265-.268c.028-.085.061-.174.1-.268a.192.192,0,0,1,.014-.085.127.127,0,0,0,.014-.057c.018-.113.1-.17.251-.17l-.084-.31.2-.254.167-.282h-.084c.056-.094.1-.159.126-.2a.41.41,0,0,0,.042-.226l.167-.085.084-.31.2-.226-.084-.2.336-.423.084-.4a2.8,2.8,0,0,0,.167-.282c.037-.075.074-.15.112-.226a4.055,4.055,0,0,0,.224-.593,1.045,1.045,0,0,1,.167-.423l.112-.31a.591.591,0,0,0-.112-.353.334.334,0,0,0-.279-.156l-.364.085-.223.367-.084.508-.2.31-.056.254-.251.282-.112.423-.084.113V45.6c-.112.057-.167.1-.167.142a.192.192,0,0,0,.014.085.13.13,0,0,1,.014.057.225.225,0,0,1,.028.141.528.528,0,0,1-.2.394v.142a.118.118,0,0,1-.028.085,1.118,1.118,0,0,0-.322.028.276.276,0,0,0-.126.141l.224.282-.167.282-.084.338-.224.367a.612.612,0,0,0-.014.226.392.392,0,0,1-.042.226q-.027.142-.307.338l-.251.565-.2.2.056.2q0,.056-.2.254a1.1,1.1,0,0,1-.14.17.762.762,0,0,0-.139.2l-.2.846-.419.846a.668.668,0,0,0-.139.48,4.041,4.041,0,0,1-.2.818v.677a.118.118,0,0,1,.028.085,1.255,1.255,0,0,0,.1.621q.1.14.433.141l.307-.169.308.028.056-.113.2-.057.056-.113.084.057v-.17l.224-.141h.2l.168-.31.168-.028.259-.28.168-.028.056-.169.168-.057.112-.254h.169v-.141l.449-.282a1.131,1.131,0,0,0,.364-.367.658.658,0,0,0,.1-.127.229.229,0,0,1,.126-.1.586.586,0,0,0,.337-.056l.084-.31.224-.057-.056-.085h.056l.084-.17H47.3l.14-.169.337-.226.056-.2.281-.057.2-.31a.05.05,0,0,1,.056-.057.116.116,0,0,0,.084-.028.535.535,0,0,0,.309-.226.153.153,0,0,0,.154-.1,1.416,1.416,0,0,0,.07-.212l.224-.029.14-.169H49.6l.028-.113.056.057.224-.565.056-.057.112.085.028-.141.139.057.084-.282.24-.2.08-.169.24-.17.084-.254.112-.056.084-.113a.129.129,0,0,1,.14-.085h.084l.056-.141.279-.057-.056.141h.14a.181.181,0,0,1-.167.2l-.112.141-.084.367-.279.508-.279.705-.084.4-.291.565.079.2-.319.818.056.4a2.467,2.467,0,0,0-.139.565,4.315,4.315,0,0,0-.028.48,1.123,1.123,0,0,0,.028.31,1.23,1.23,0,0,1,.084.423v.677a.683.683,0,0,0,.066.212,4.281,4.281,0,0,0,.358.579l.106.057.224.338.417.254.307-.029.2.085V55.7h.14l.167.169a.058.058,0,0,0,.042-.014.056.056,0,0,1,.042-.014.892.892,0,0,1,.279-.057.6.6,0,0,1,.2.029l.419-.141.251-.2.363-.085a.3.3,0,0,1,.279-.113.232.232,0,0,0,.224-.057l.112-.17.14.057.112-.141.2-.057.028-.113h.2l.642-.423.307-.085.251-.282a.09.09,0,0,1,.056-.085.312.312,0,0,0,.084-.057.324.324,0,0,1,.084-.057c.056-.038.116-.08.182-.127a.486.486,0,0,0,.154-.184l.112-.028.084-.17.084.057.671-.875.139-.028a1.97,1.97,0,0,0,.14-.409,1.5,1.5,0,0,0,.028-.24v-.057Z" transform="translate(-2.964 -35.753)" fill="#fff"/>
        <path id="Path_46" data-name="Path 46" d="M74.384,50.171v-.057q0-.282-.224-.282a.623.623,0,0,0-.2.028l-.112.254h-.167l-.167.282-.056.254-.279.254a.605.605,0,0,0-.182.057.393.393,0,0,0-.1.141l-.112.17-.224.169-.139.31-.251.226c-.019.094-.056.151-.112.169a.675.675,0,0,1-.251.029h-.028a.462.462,0,0,1-.056.254,1.35,1.35,0,0,1-.279.254l-.391.141-.251.282-.391.085-.084.169-.224.028-.084.17-.447.085-.363.226v.057c0,.188-.056.282-.167.282q-.392,0-.685.029c-.2.018-.368.038-.517.056h-.223a.591.591,0,0,1-.419-.113.916.916,0,0,1-.224.057c-.131,0-.2-.094-.2-.282v-.057h-.112a.64.64,0,0,0-.14-.423l-.14-.2.028-.423-.14-.424-.028-.4.2-.734-.112-.2c.074,0,.112-.046.112-.141a1.178,1.178,0,0,0,.14-.169.466.466,0,0,0,.056-.254.476.476,0,0,0-.014-.113.442.442,0,0,1-.014-.113l.14-.113V50.03l.167-.2-.028-.226a.642.642,0,0,1,.112-.17l.139-.141a.289.289,0,0,0,.07-.1c.009-.029.023-.089.042-.184l.028-.338.2-.565.363-.31.2-.451v-.113l.139-.226.028-.621c.148-.038.228-.1.237-.184A.3.3,0,0,1,68.572,46a1.015,1.015,0,0,0,.167-.2.4.4,0,0,0,.028-.169v-.113l.251-.2a.494.494,0,0,0,.2-.2c.037-.075.074-.16.112-.254q.419-.451.419-.593c0-.038-.01-.056-.028-.056a.164.164,0,0,0-.112-.029h-.028l-.028.029.559-.621.028-.254.307-.057q.111-.451.419-.451a.662.662,0,0,1,.531.282v-.057c0-.094.009-.141.028-.141h.028c.074.038.112.122.112.254l.167.649-.056.367a.221.221,0,0,1,.182.057.571.571,0,0,1,.042.282v.48c0,.075.009.123.028.141l.056.2-.028.48-.084.31-.167.141.14.17-.14.226.2.4.112.4.475.113.112-.649.056-.141-.028-.31.112-.2.112.057-.167-.705h-.028a.5.5,0,0,1-.056-.141.391.391,0,0,1,.139-.254q0-.2-.112-.226l-.14-.677-.112-.338.056-.282-.084-.254v-.2l-.167-.029-.224-.846a.189.189,0,0,0-.14-.057.512.512,0,0,1-.336-.367l-.139.028-.224-.085-.224.028a.1.1,0,0,0-.112-.113.862.862,0,0,0-.293.127,2.356,2.356,0,0,0-.377.324.415.415,0,0,1-.112.085,1.929,1.929,0,0,1-.251.085.08.08,0,0,0-.028.056,1.245,1.245,0,0,1-.14.3.9.9,0,0,1-.251.24l-.2.424q-.2.282-.322.451a1.976,1.976,0,0,0-.182.282,1.521,1.521,0,0,0-.084.2c-.019.057-.038.123-.056.2l-.2.4-.336.367-.475.9-.112.4-.5,1.072L66.754,48l-.279.254.056.31-.167.254.056.282-.307.338.028.537-.167.254.028.282-.224.367-.028.4-.167.537.028.169-.056.254.112.254-.112.17.223.508-.056.338.167.282.056.4.587.451.2.31.167.028.224.254a.482.482,0,0,0,.2.028.855.855,0,0,0,.14-.014.994.994,0,0,1,.167-.014h.056a.149.149,0,0,1,.167.169v.029h.307l.14-.226.2.057h.336v-.141l.7-.141.028-.141.167.057a.531.531,0,0,1,.139-.1.951.951,0,0,1,.279-.071l.139-.2.167.028a.058.058,0,0,1,.042.014.056.056,0,0,0,.042.014.393.393,0,0,0,.265-.113.336.336,0,0,0,.126-.254c0-.038.037-.094.112-.169l.167-.17.251-.028.14-.282.2-.2.141.025.028-.169.391-.085.139-.367.279-.085.084-.141-.028-.141.112-.085L72.9,52.2h.14l.2-.537.363-.085.112-.113v-.056a.922.922,0,0,1,.056-.226A1.017,1.017,0,0,1,73.853,51a2.027,2.027,0,0,0,.112-.24l.112-.057.056-.2.251-.2v-.142Z" transform="translate(-4.026 -35.753)" fill="#fff"/>
        <path id="Path_47" data-name="Path 47" d="M92.334,51.751a.083.083,0,0,0-.056-.029.159.159,0,0,0-.112.029L92,51.92h-.167l-.14.367-.419.282a.424.424,0,0,1-.167.056.243.243,0,0,0-.112.029c-.037.018-.056.033-.056.042s-.01.024-.028.043a.366.366,0,0,0-.307.282l-.167-.028a.788.788,0,0,0-.182.184.768.768,0,0,0-.042.324l-.727.169.028.085-.224.169-.81.141-.028.17a2.687,2.687,0,0,0-.475.085.75.75,0,0,0-.154.071.65.65,0,0,0-.126.1c-.075.038-.144.071-.21.1a.211.211,0,0,0-.126.127.372.372,0,0,0-.251-.057H87a1.312,1.312,0,0,0-.182.057.345.345,0,0,1-.126.028l-.5.028-.2-.085-.307-.028-.307-.2-.056-.367-.139-.029.056-.254-.251-.282.084-.423v-.677l.167-.508.167-1.1.167-.621c.13-.038.2-.094.224-.169a2.329,2.329,0,0,0,.028-.452l.224-.254V49.1l.084-.057.084-.254.167-.141v-.254l.223-.338v-.31l.112-.17.223-.085.028-.2.167-.282a.458.458,0,0,1-.028-.141v-.057a.8.8,0,0,1,.056-.1c.018-.029.037-.061.056-.1l.419-.451.084-.338.171-.225.028.057.14-.226H88.2l.084-.226.084-.057v-.226h.167a.554.554,0,0,1,.112-.4.652.652,0,0,0,.2-.338v-.028c0,.018-.028,0-.084-.057l-.028-.029a.541.541,0,0,0,.279-.423.427.427,0,0,0-.07-.226c-.046-.075-.089-.141-.126-.2l-.363.226a.537.537,0,0,0-.167-.029.129.129,0,0,0-.139.085l-.615,1.1a.959.959,0,0,0-.2.1.66.66,0,0,0-.14.212.252.252,0,0,0-.112-.029q-.14,0-.251.282l-.363.367v.226l-.391.565-.167.367a.66.66,0,0,0-.5.155,1.271,1.271,0,0,0-.2.268l-.457.367a.383.383,0,0,0-.121.014,1.259,1.259,0,0,0-.177.1l.056.085-.224.113V48c0,.057-.056.085-.168.085h-.168a.13.13,0,0,1-.084.141l-.056.028-.084.057a.366.366,0,0,0-.2.338V48.7H83.5l-.393.367c-.131,0-.205.014-.224.042a.392.392,0,0,0-.028.184,1.292,1.292,0,0,1-.224.2l.028-.141a.638.638,0,0,0-.295.184,1.585,1.585,0,0,0-.126.212.347.347,0,0,1-.28.254H81.93a.247.247,0,0,0-.183.071l-.126.127-.112.029-.169.282-.056-.085-.224.113a3.177,3.177,0,0,1-.168.409,1.437,1.437,0,0,1-.28.3l-.253.423h-.112l-.224.254-1.066.452-.168.282-.14-.057-.337.113-.112.282-.589.367-.393-.028v-.312l-.056-.113.224-.226-.167-.085.223-.2.028-.226.167-.2v-.254l.167-.141.307-.593.084-.424.167-.282-.084-.226.14-.085V49.8l.336-.226c0-.094-.019-.15-.056-.169a.591.591,0,0,0,.265-.268c.028-.085.06-.174.1-.268a.192.192,0,0,1,.014-.085.128.128,0,0,0,.014-.057c.018-.113.1-.17.251-.17l-.084-.31.2-.254.167-.282h-.084c.056-.094.1-.159.126-.2a.41.41,0,0,0,.042-.226l.167-.085.084-.31.2-.226-.084-.2.336-.423.084-.4a2.8,2.8,0,0,0,.167-.282c.037-.075.074-.15.112-.226a4.063,4.063,0,0,0,.223-.593,1.055,1.055,0,0,1,.167-.423l.112-.31a.6.6,0,0,0-.112-.353.334.334,0,0,0-.279-.156l-.363.085-.224.367-.084.508-.2.31-.056.254-.251.282-.112.423-.084.113V45.6c-.112.057-.167.1-.167.142a.192.192,0,0,0,.014.085.13.13,0,0,1,.014.057.225.225,0,0,1,.028.141.624.624,0,0,1-.028.155.617.617,0,0,1-.167.24v.142a.118.118,0,0,1-.028.085,1.118,1.118,0,0,0-.322.028.276.276,0,0,0-.126.141l.223.282-.167.282-.084.338-.223.367a.6.6,0,0,0-.014.226.392.392,0,0,1-.042.226c-.019.094-.121.207-.307.338l-.251.565-.2.2.056.2q0,.056-.2.254a1.137,1.137,0,0,1-.139.17.764.764,0,0,0-.14.2l-.2.846-.419.846a.668.668,0,0,0-.14.48,4.042,4.042,0,0,1-.2.818v.677a.118.118,0,0,1,.028.085,1.255,1.255,0,0,0,.1.621c.065.094.21.141.433.141l.307-.169.308.028.056-.113.2-.057.056-.113.084.057v-.17l.224-.141h.2l.168-.31.168-.028.253-.282.168-.028.056-.169.168-.057.113-.254h.168v-.139l.449-.282a1.13,1.13,0,0,0,.364-.367.629.629,0,0,0,.1-.127.229.229,0,0,1,.127-.1.581.581,0,0,0,.336-.056L81,51.78l.224-.057-.056-.085h.056l.084-.17h.169l.14-.169.336-.226.056-.2.281-.057.2-.31a.05.05,0,0,1,.056-.057.117.117,0,0,0,.084-.028.533.533,0,0,0,.308-.226.153.153,0,0,0,.154-.1,1.536,1.536,0,0,0,.07-.212l.224-.029.14-.169h.253l.028-.113.056.057.224-.565.056-.057.112.085.028-.141.14.057.084-.282.239-.2.08-.169.239-.17.084-.254.112-.056.084-.113a.128.128,0,0,1,.139-.085h.084l.056-.141.279-.057-.056.141h.139a.18.18,0,0,1-.167.2l-.112.141-.084.367-.279.508-.279.705-.084.4-.291.565.079.2-.319.818.056.4a2.473,2.473,0,0,0-.14.565,4.491,4.491,0,0,0-.028.48,1.123,1.123,0,0,0,.028.31,1.213,1.213,0,0,1,.084.423v.677a.683.683,0,0,0,.066.212,4.358,4.358,0,0,0,.358.579l.106.057.224.338.419.254.307-.029.2.085V55.7h.139l.167.169a.058.058,0,0,0,.042-.014.055.055,0,0,1,.042-.014.9.9,0,0,1,.279-.057.608.608,0,0,1,.2.029l.419-.141.251-.2.363-.085a.3.3,0,0,1,.279-.113.23.23,0,0,0,.223-.057l.112-.17.14.057.112-.141.2-.057.028-.113h.2l.643-.423.307-.085.251-.282a.091.091,0,0,1,.056-.085.3.3,0,0,0,.084-.057.337.337,0,0,1,.084-.057c.056-.038.116-.08.182-.127a.485.485,0,0,0,.153-.184l.112-.028.084-.17.084.057.671-.875.14-.028a2.013,2.013,0,0,0,.14-.409,1.5,1.5,0,0,0,.028-.24v-.057Z" transform="translate(-4.513 -35.753)" fill="#fff"/>
        <path id="Path_48" data-name="Path 48" d="M111.286,43.23a.753.753,0,0,0-.028-.226.347.347,0,0,0-.084-.141.66.66,0,0,0-.167-.113.635.635,0,0,1-.167-.113l-.056-.2-.419-.17a.973.973,0,0,0-.2-.1,1.544,1.544,0,0,0-.293-.071c-.122-.018-.293-.038-.517-.057s-.522-.038-.894-.057a1.757,1.757,0,0,1-.531.113.565.565,0,0,1-.139-.014.582.582,0,0,0-.14-.014l-.112.141-.336.028q-.251.029-.517.071a1.945,1.945,0,0,0-.405.1l-.056.085-.307.057-.028.141-1.314.2-.139.254-.336.254-.391.028-.139.367h-.084c0,.094-.028.151-.084.17a.476.476,0,0,1-.251.085l-.838.9-.028.2-.084.057.112.141-.2.226.2.141-.084.2.14.141v.282l.167.282.112.508.642,1.072.251.085.084.282a.24.24,0,0,0,.112.071c.037.01.121.024.251.043l.307.423.167.029.028.085.391.028.14.31.307.113.447.4.307.057.2.4h.391l.336.451.531.31,1.034.96.336.649.2.338.056.2-.167.113-.112.367-.419.085v.254l-.2.028a.948.948,0,0,1-.251.155,3.167,3.167,0,0,1-.336.1l.084.056H106.9l-.167.057-.363-.141-.279.029-.112.085-.14-.17-.112.141a.587.587,0,0,0-.307-.085.876.876,0,0,0-.335.085l-.279-.254-.5.085a.748.748,0,0,0-.349-.155q-.154-.014-.461-.014l-.224-.2-.5-.085-.251-.2L101.9,53.7v-.141a.567.567,0,0,1-.419-.17,1.448,1.448,0,0,0-.21-.113.964.964,0,0,0-.377-.057h-.056l-.084-.17-.167-.028-.112-.141h-.139l.056-.141-.559-.367a1.173,1.173,0,0,0,.307-.367V51.95c0-.075-.018-.113-.056-.113l-.279-.085-.084-.113-.307-.028-.056.056-.028.029a.64.64,0,0,0-.475.169l-.2.2.084.2.112.452.307.085.251.282.336.057.307.4.251-.113.14.2.167-.029.167.254h.279l.447.4.364-.057.223.31.14-.113.112.028.251-.028.727.451.726.141.419.226.811-.028a.787.787,0,0,0,.475.2.4.4,0,0,0,.224-.057.606.606,0,0,1,.2-.028h.056a.169.169,0,0,1,.1.028.173.173,0,0,0,.1.028l1.481-.056.084.141.391-.226v.085l.587-.17.251-.4.364-.057.251-.254.028-.169.2-.17-.2-.113a.314.314,0,0,1,.167-.113.579.579,0,0,0,.167-.268,1.042,1.042,0,0,0,.028-.212c0-.113-.037-.169-.112-.169l-.14-.057L110,52.8l-.139-.057-.056-.282-.5-.508v-.141h-.139l-.084-.2L108.6,51.5v-.2a.841.841,0,0,0-.182-.184.558.558,0,0,0-.265-.043l-.056-.2h-.112v-.254h-.2l-.084-.169-.419-.2-.056-.113-.224-.057a2,2,0,0,0-.322-.381.634.634,0,0,0-.35-.071l-.084-.169h-.307l-.167-.31-.307-.141-.084-.254-.307.029-.336-.31v-.226h-.307l-.14-.169-.279-.17-.112-.254-.14-.085-.056-.226-.419-.593.084-.085-.028-.875.754-1.1a1.789,1.789,0,0,0,.35-.169c.084-.056.163-.113.237-.169a1.264,1.264,0,0,0,.2-.184c.056-.066.13-.145.224-.24l.363-.028.028-.141.336-.057.14-.113.084.028a1.6,1.6,0,0,1,.167-.1.493.493,0,0,1,.224-.043h.2l.2-.2a.938.938,0,0,0,.182-.014.623.623,0,0,1,.126-.014.549.549,0,0,1,.153.014.3.3,0,0,0,.1.014.451.451,0,0,1,.112.014.443.443,0,0,0,.112.014l.419-.282.531-.028.391-.113.14.113.615.085h.112c.075,0,.112.057.112.17a.812.812,0,0,0,.139.324.562.562,0,0,0,.279.156.307.307,0,0,0,.307.226h.056a.6.6,0,0,0,.433-.127.712.712,0,0,0,.126-.494h0V43.23Z" transform="translate(-5.526 -35.753)" fill="#fff"/>
        <path id="Path_49" data-name="Path 49" d="M123.732,50.171l-.084-.9-.14-.734-.14-.367-.084-.4-.279-.423-.084-.31-.2-.141-.14-.423-.754-1.016-.224-.141.056-.113-.475-.537-.531-.226-.223-.338h-.167l-.2-.282-.7-.2-.167-.2-.391-.113.139-.2.391-.818-.307-.48-.587-.113-.167.593-.112.677-.251.056-.587-.254-.363.085q-.028-.14-.279-.254a.316.316,0,0,0-.14-.028.51.51,0,0,1-.167-.029.535.535,0,0,0-.167-.028.8.8,0,0,1-.2-.029l-.894.142a.909.909,0,0,0-.447.677,1.078,1.078,0,0,0,.084.424l.223-.057.364.085a.615.615,0,0,1,.279-.057h.419a1.177,1.177,0,0,0,.2-.014.691.691,0,0,0,.2-.071l.754.282a1.558,1.558,0,0,1,.5.127.317.317,0,0,1,.14.155v.029a.2.2,0,0,1-.014.085l-.042.085-.167.338-.139.451c-.019,0-.046.047-.084.141a1.1,1.1,0,0,0-.042.24c-.01.1-.024.259-.042.466l-.279.705v.254l-.335.085-.167,1.016h-.084c-.131,0-.2.1-.2.31v.226l-.084.254.028.2-.336.537-.364.988-.167.169-.167.4-.056.31-.251.339a2.994,2.994,0,0,0-.2.409,1.163,1.163,0,0,1-.112.24l-.084.169c-.018.038-.046.1-.084.2l-.139.48-.5-.141-.5-.028H113.2q-.363,0-.363.423c0,.019-.019.047-.056.085l-.028.057c0,.019,0,.028-.014.028s-.014.01-.014.029a.161.161,0,0,0-.028.113.417.417,0,0,0,.112.226l.223-.085.251.085a.178.178,0,0,0,.084-.015.2.2,0,0,1,.084-.014,1.044,1.044,0,0,1,.251-.028.737.737,0,0,1,.224.028l.112.085-.056.423-.224.508c-.094.451-.167.79-.224,1.016a4.416,4.416,0,0,1-.139.48c-.038.094-.075.145-.112.155a.826.826,0,0,0-.167.071l-.056.537-.279.31v.338l-.224.705-.2.057V59.2l-.224.423-.2.705-.168.169a2.574,2.574,0,0,0-.2.649v.028a.05.05,0,0,0,.056.057l-.307.593.028.226-.028.226-.223.2v.4l-.336.846-.224.282.14.2-.167.31-.028.452-.279.169-.167.649.475.2.2-.565.447-.593v-.508l.279-.423.2-.733.5-1.213.279-1.1h.14l.2-.875.084-.17.056-.113a.224.224,0,0,0,.028-.085.211.211,0,0,1,.028-.085.873.873,0,0,0,.224-.254v-.2l.419-.846.251-.762h.056a.414.414,0,0,0,.084-.212.9.9,0,0,1,.056-.212l.2-.593a5.875,5.875,0,0,0,.279-.776,1.939,1.939,0,0,0,.056-.437l.084-.338.307-.282a.936.936,0,0,1-.056-.226c0-.131.093-.2.279-.2a2.066,2.066,0,0,1,.405.042c.14.029.274.061.405.1v-.029l.084.085,2.459-.17.2.057.2-.254.336.113.447-.226a.517.517,0,0,0,.336.113.915.915,0,0,0,.419-.1.661.661,0,0,0,.251-.184l.615-.2c.037-.113.074-.178.112-.2a.889.889,0,0,1,.2-.057l.167-.141h.14l.112-.31.447-.226.419-.621.112-.085.336-.452.251-.649Zm-.754-1.128-.084.338c.074,0,.112.188.112.565a2.972,2.972,0,0,1-.084.649l-.279.508-.391.48a.752.752,0,0,1-.307.4.694.694,0,0,1-.168.085.271.271,0,0,0-.139.113l-.224.226-.5.17-.251.169H120.6a.5.5,0,0,0-.307.085c-.056.038-.117.08-.182.127s-.144.1-.237.155h-.391a7.859,7.859,0,0,1-1.453.338.267.267,0,0,1-.2-.057l-1.313.085c-.075.038-.154.075-.238.113a.571.571,0,0,1-.237.057h-.084l-.559-.113-.084-.451.307-.367.363-.96.167-.254.7-1.89.391-.537.112-.508.335-.479.056-.508.307-.367.056-.48.028-.338.167-.226.223-.818.028-.254c.037,0,.056-.038.056-.113v-.127a.278.278,0,0,1,.028-.127.989.989,0,0,1,.084-.254.377.377,0,0,1,.251-.169l.279.085.642.508.671.282.559.48.251.4.5.508.363.846.14.085.084.282.279.565.056.4Z" transform="translate(-6.041 -35.753)" fill="#fff"/>
        <path id="Path_50" data-name="Path 50" d="M134.7,36.4l-.448-.649-.279.226a1.346,1.346,0,0,0-.2.17.309.309,0,0,0-.112.2.057.057,0,0,0,.014.043.059.059,0,0,1,.014.043l-.279.085-.112.282-.139-.028a1.69,1.69,0,0,1-.224.451,1.14,1.14,0,0,1-.447.4,1.8,1.8,0,0,1-.167.353,3.013,3.013,0,0,1-.238.338,1.411,1.411,0,0,1-.237.24.407.407,0,0,1-.139.085.725.725,0,0,1-.293.48q-.237.169-.461.338l-.028.367h-.167l-.028.226a.741.741,0,0,0-.224.367v.029c0,.018.037.047.112.085l.223.113.587-.424.224-.367.279-.028.2-.226.028-.367.363-.367.336-.141a1.464,1.464,0,0,0,.224-.268c.037-.066.065-.117.084-.155l.028-.057a.09.09,0,0,1,.056-.085l.084-.113a.345.345,0,0,1,.251-.113l.252-.338.559-.282.028-.226.224-.254Zm0,14.814-.084-.509h-.279l-.084.31-.251.029-.139.31-.307.085-.112.113v.028a.083.083,0,0,1-.028.057.673.673,0,0,1-.336.085l-.419.254-.5.169-.364.424h-.363l-.642.367a.919.919,0,0,0-.419.057c-.056.038-.084.066-.084.085a.652.652,0,0,1-.224.226.845.845,0,0,1-.224.1,3.664,3.664,0,0,0-.391.155l-.448.057-.279.113-.419-.113-.056-.113-.224-.649-.028-.4.084-.141-.056-.423.167-.17.028-.282.167-.085-.056-.31.112-.254v-.31l.14-.2.167-.988.167-.254.2-.565-.028-.48h.112l-.028-.423.447-.423-.084-.226.112-.282a.243.243,0,0,0,.084-.17.32.32,0,0,0-.014-.1.416.416,0,0,1-.014-.127l.139-.254v-.254l.224-.254-.056-.31.391-.367.056-.085a.285.285,0,0,0,.028-.127.278.278,0,0,1,.028-.127c.037-.094.07-.184.1-.268a.837.837,0,0,1,.126-.24l-.056-.17.084-.254-.167-.029-.167-.423a.225.225,0,0,0-.167-.113.319.319,0,0,0-.223.113l-.084.085c-.019.113-.038.207-.056.282a1.293,1.293,0,0,1-.1.254c-.046.094-.107.212-.182.353s-.177.324-.307.551l-.336.79v.028l.028.085V45.6a.917.917,0,0,1-.014.142.411.411,0,0,1-.126.2,2.966,2.966,0,0,1-.07.536,1.625,1.625,0,0,1-.182.367l-.14.565-.251.508a1.214,1.214,0,0,0-.307.762,5.158,5.158,0,0,1-.112.818l-.279.762v.48l-.336.762.084.452a.507.507,0,0,0-.056.141.059.059,0,0,1-.014.042.056.056,0,0,0-.014.043.242.242,0,0,1-.014.071c-.009.028-.051.061-.126.1a.9.9,0,0,1,.056.254,1.647,1.647,0,0,1-.056.282.876.876,0,0,0-.028.254,1.414,1.414,0,0,0,.084.423l.084.4.336.282.167.4a.721.721,0,0,0,.531.226h.14a.958.958,0,0,0,.405-.085c.121-.056.247-.113.377-.169a1.46,1.46,0,0,1,.2-.085.516.516,0,0,1,.167-.029.242.242,0,0,1,.2.113l.336-.057.084-.282h.559v-.028h.028a.246.246,0,0,1,.084-.17,1.877,1.877,0,0,1,.559-.367l.028-.17.391-.056.112-.2.391-.085a.316.316,0,0,1,.167-.31.743.743,0,0,1,.336-.085h.028l.224-.282h.167l.112-.338.391-.029.251-.2.251-.4.419-.113h0Z" transform="translate(-6.81 -35.753)" fill="#fff"/>
        <path id="Path_51" data-name="Path 51" d="M147.957,44.584l-.167-.282.084-.226-.056-.338-.2-.282-.167-.367-.307-.169a1.829,1.829,0,0,0-.447-.254.975.975,0,0,0-.307-.057,2.339,2.339,0,0,0-.391.057l-.978.2-.391.141-.363.057c0,.038-.051.113-.153.226a.422.422,0,0,1-.293.17h-.056l-.336.113-.028.226a.373.373,0,0,0-.265.127,1.508,1.508,0,0,1-.21.184c-.037.018-.056.033-.056.042s-.019.015-.056.015a.682.682,0,0,1-.126.3,1.093,1.093,0,0,1-.21.155.378.378,0,0,0-.363.479l-.251.029-.112.226-.279.226-.2.2a.679.679,0,0,0-.167.226h-.028l-.112.029-.447.565-.056-.057a1.387,1.387,0,0,0-.237.24.451.451,0,0,0-.084.184q-.015.085-.042.184a.67.67,0,0,1-.112.212l-.224.057v.2l-.336.338-.167.4-.167.113-.084.226-.167.029-.056-.424.224-.338v-.565l.167-.169.084-.537.112-.085L139.6,45.2l.251-.367.084-.367V44.3a1.721,1.721,0,0,0-.084-.607,1.391,1.391,0,0,0-.2-.353l-.2-.621-.363-.254a.809.809,0,0,0-.153.2.521.521,0,0,1-.1.141.51.51,0,0,0-.1.184,1.132,1.132,0,0,0-.014.212v.155a1.3,1.3,0,0,1-.028.24l.167.169-.084.452.028.282-.112.141.084.649-.251,1.016-.2.4a.192.192,0,0,1,.056.141.5.5,0,0,1-.056.226.657.657,0,0,1-.084.141l-.2,1.128-.251.649-.279,1.156h-.112a1.532,1.532,0,0,0-.084.3,3.131,3.131,0,0,0-.028.494l-.167.169-.167.423-.112.621-.279.875a.162.162,0,0,0-.112-.028.074.074,0,0,0-.084.085.114.114,0,0,0,.028.085.646.646,0,0,0-.028.2.639.639,0,0,1-.028.2.212.212,0,0,1-.167.2l-.112.367-.167.141a4.4,4.4,0,0,0,.489.522.674.674,0,0,0,.405.212.19.19,0,0,0,.14-.057l.112-.226.279-.142a.435.435,0,0,1-.056-.169.548.548,0,0,1,.112-.254l.112-.113.028-.565.084-.029-.084-.451.084-.2.084.085v-.367l.223-.085.112-.479.307-.31.251-.621.279-.254.335-.565a1.471,1.471,0,0,1,.084-.338,2.174,2.174,0,0,1,.084-.226,3.272,3.272,0,0,1,.531-.452l.028-.254.167-.085.084-.424.251-.141v-.169l.224-.085.084-.338q.112-.113.265-.282a.962.962,0,0,0,.21-.338v-.113l.028-.028h.167l.084-.338.251-.17.167-.254.112.056.251-.565.419-.141.363-.4.419-.537.475-.2.279-.282.587-.367.671-.141.447.056.279.2a.413.413,0,0,1,.293.17.757.757,0,0,1,.126.282l.056.367-.112.338a.142.142,0,0,0,0,.226.343.343,0,0,0,.251.113l.391.028a.3.3,0,0,0,.14.029.4.4,0,0,0,.279-.141l.14-.141a.462.462,0,0,0,.084-.24.989.989,0,0,1,.056-.24Z" transform="translate(-7.214 -35.753)" fill="#fff"/>
        <path id="Path_52" data-name="Path 52" d="M155.744,36.4l-.448-.649-.279.226a1.385,1.385,0,0,0-.2.17.309.309,0,0,0-.112.2.057.057,0,0,0,.014.043.059.059,0,0,1,.014.043l-.279.085-.112.282-.139-.028a1.69,1.69,0,0,1-.224.451,1.14,1.14,0,0,1-.447.4,1.759,1.759,0,0,1-.167.353,3.1,3.1,0,0,1-.237.338,1.387,1.387,0,0,1-.238.24.407.407,0,0,1-.139.085.722.722,0,0,1-.293.48q-.239.169-.461.338l-.028.367H151.8l-.028.226a.741.741,0,0,0-.224.367v.029c0,.018.037.047.112.085l.223.113.587-.424.224-.367.279-.028.2-.226.028-.367.363-.367.336-.141a1.465,1.465,0,0,0,.224-.268c.037-.066.065-.117.084-.155l.028-.057a.09.09,0,0,1,.056-.085l.084-.113a.345.345,0,0,1,.251-.113l.251-.338.559-.282.028-.226.224-.254Zm0,14.814-.084-.508h-.279l-.084.31-.251.029-.139.31-.307.085-.112.113v.028a.083.083,0,0,1-.028.057.673.673,0,0,1-.336.085l-.419.254-.5.169-.363.424h-.364l-.642.367a.919.919,0,0,0-.419.057c-.056.038-.084.066-.084.085a.652.652,0,0,1-.224.226.845.845,0,0,1-.224.1,3.664,3.664,0,0,0-.391.155l-.447.057-.279.113-.419-.113-.056-.113-.224-.649-.028-.4.084-.141-.056-.423.167-.17.028-.282.167-.085-.056-.31.112-.254v-.31l.14-.2.167-.988.167-.254.2-.565-.028-.48h.112l-.028-.423.447-.423-.084-.226.112-.282a.243.243,0,0,0,.084-.17.319.319,0,0,0-.014-.1.44.44,0,0,1-.014-.127L150.88,46v-.254l.224-.254-.056-.31.391-.367.056-.085a.285.285,0,0,0,.028-.127.279.279,0,0,1,.028-.127c.037-.094.07-.184.1-.268a.836.836,0,0,1,.126-.24l-.056-.17.084-.254-.167-.029-.167-.423a.225.225,0,0,0-.167-.113.319.319,0,0,0-.223.113l-.084.085c-.019.113-.037.207-.056.282a1.292,1.292,0,0,1-.1.254c-.046.094-.107.212-.182.353s-.177.324-.307.551l-.336.79v.028l.028.085V45.6a.919.919,0,0,1-.014.142.411.411,0,0,1-.126.2,3.052,3.052,0,0,1-.07.536,1.655,1.655,0,0,1-.182.367l-.14.565-.251.508a1.214,1.214,0,0,0-.307.762,5.157,5.157,0,0,1-.112.818l-.279.762v.48l-.336.762.084.452a.507.507,0,0,0-.056.141.056.056,0,0,1-.014.042.056.056,0,0,0-.014.043.243.243,0,0,1-.014.071c-.009.028-.051.061-.126.1a.905.905,0,0,1,.056.254,1.649,1.649,0,0,1-.056.282.875.875,0,0,0-.028.254,1.414,1.414,0,0,0,.084.423l.084.4.336.282.167.4a.721.721,0,0,0,.531.226h.14a.959.959,0,0,0,.405-.085c.121-.056.247-.113.377-.169a1.46,1.46,0,0,1,.2-.085.513.513,0,0,1,.167-.029.243.243,0,0,1,.2.113l.336-.057.084-.282h.559v-.028h.028a.246.246,0,0,1,.084-.17,1.877,1.877,0,0,1,.559-.367l.028-.17.391-.056.112-.2.391-.085a.316.316,0,0,1,.167-.31.743.743,0,0,1,.336-.085h.028l.224-.282h.167l.112-.338.391-.029.251-.2.251-.4.419-.113h0Z" transform="translate(-7.764 -35.753)" fill="#fff"/>
        <path id="Path_53" data-name="Path 53" d="M168.783,43.117l-.447.141a1.506,1.506,0,0,0-.307-.085h-.084a.441.441,0,0,1-.139-.028l-.419.057-.615-.057-1.732.169-.167-.085-.336.113a.321.321,0,0,0-.224-.113.347.347,0,0,0-.2.085l-.028.029h-.951l-.7.142-.279-.226-.084.141h-.224l-.336.141c-.056,0-.084-.046-.084-.141v-.127a.663.663,0,0,1,.056-.127,2.5,2.5,0,0,0,.126-.338c.046-.15.116-.367.21-.649l.084-.565.336-.452-.056-.254.2-.2.2-.367c0-.038.028-.08.084-.127a.228.228,0,0,0,.084-.184.166.166,0,0,0-.028-.113l.14-.226v-.2l.363-.254c.018-.075.037-.15.056-.226.018-.057.042-.122.07-.2a2.4,2.4,0,0,1,.1-.226,1.836,1.836,0,0,0,.307-.522,4.821,4.821,0,0,0,.223-.579l-.279-.254-.307-.113-.112.113a.186.186,0,0,1-.14.057h-.028l-.336.226a.083.083,0,0,1-.028.057.488.488,0,0,0-.167.338v.085l-.084.141-.251.057a.921.921,0,0,0-.153.409,3.43,3.43,0,0,0-.07.719l-.363.4.112.254-.223.085-.14.31-.279.17.167.226a.672.672,0,0,0-.14.3,1.8,1.8,0,0,0-.028.324.845.845,0,0,1-.042.268.727.727,0,0,1-.182.268l-.223.621.028.338-.336.31v.338a.228.228,0,0,1-.167.212,1,1,0,0,1-.391.071,2.107,2.107,0,0,1-.615-.085l-.475.057a.76.76,0,0,1-.391.141.189.189,0,0,1-.084-.014.122.122,0,0,0-.056-.014.5.5,0,0,0-.139-.057h-.028a.025.025,0,0,0-.028.028,2.318,2.318,0,0,1-.517.141c-.215.038-.34.132-.377.282a.923.923,0,0,0,.279.522.637.637,0,0,0,.419.212c.093,0,.148-.018.167-.057.037-.057.148-.085.336-.085h.335l.978-.085v.169l-.084.17a1.624,1.624,0,0,0-.1.254.521.521,0,0,1-.126.226l-.084.127a.985.985,0,0,0-.056.1.248.248,0,0,0-.028.113v.028a.228.228,0,0,1,.028.085.212.212,0,0,0,.028.085l-.112.4-.307.537-.167.649-.363.593.112.226-.279.537-.084.705a.463.463,0,0,0-.14.338.661.661,0,0,0,.028.184.688.688,0,0,1,.028.184.352.352,0,0,1-.112.254l.112.423-.084.4.084.367a3.105,3.105,0,0,0,.112.677,1.4,1.4,0,0,0,.224.565,5.547,5.547,0,0,0,.866,1.044l.251.057.167.169.587.17.056.113.279.2.056-.056a.079.079,0,0,1,.056-.029.054.054,0,0,1,.042.015.114.114,0,0,0,.07.014.582.582,0,0,0,.223.028,1.927,1.927,0,0,0,.363-.028l.754.2.307-.141.167-.2.223.2.559-.282.2.029.167-.254.307.057.14-.2.251-.057.279-.2h.307l.5-.254h.307l.251-.338.754-.423a.328.328,0,0,0,.056-.085.432.432,0,0,0,.056-.169c0-.057-.046-.085-.139-.085h-.028a.745.745,0,0,0-.21.057c-.1.038-.215.075-.336.113a2.385,2.385,0,0,0-.349.141,1.07,1.07,0,0,0-.2.113,1.16,1.16,0,0,0-.433.1,2.739,2.739,0,0,0-.405.324l-.336-.085-.224.282-.167-.057-.726.057c-.205.113-.345.188-.419.226a.43.43,0,0,1-.168.057.025.025,0,0,0-.028-.028h-.028l-.587.113-.978-.057c-.037,0-.061,0-.07-.014a.057.057,0,0,0-.042-.014.93.93,0,0,1-.224-.028c-.094-.018-.22-.038-.377-.057a1.845,1.845,0,0,1-.545-.17l-.084-.2-.167.057-.336-.4-.279-.508-.2-.79-.028-.338.112-.705-.056-.31.056-.79.279-.677a4.722,4.722,0,0,1,.126-.537.474.474,0,0,1,.1-.169l.028-.029v-.028a2.316,2.316,0,0,0,.112-.282,2.678,2.678,0,0,0,.084-.31l.167-.733.2-.17.028-.254.2-.254.084-.4.363-.565-.028-.085.084-.338a.313.313,0,0,0,.112-.2v-.085a.236.236,0,0,1,.112-.1l.14-.071.112-.028a1.9,1.9,0,0,0,.293-.085,3.8,3.8,0,0,1,.377-.113h.056a.593.593,0,0,1,.307.057l.056.028a.159.159,0,0,0,.112.029.683.683,0,0,0,.224-.085.11.11,0,0,1,.112-.085.553.553,0,0,1,.2.043.626.626,0,0,0,.223.042.159.159,0,0,0,.112-.028l.615.028.336-.2.447.17.7-.2.5-.254a1.263,1.263,0,0,1,.307-.113h.279a1.547,1.547,0,0,1,.2.014c.074.01.158.024.251.043l.2-.029a.27.27,0,0,0,.126.029h.125a1.689,1.689,0,0,0,.419-.057.885.885,0,0,1,.251-.057h.056c.037,0,.056.01.056.028a1.075,1.075,0,0,1,.419-.113h.084a.334.334,0,0,0,.265-.085.269.269,0,0,0,.07-.17c0-.113-.038-.169-.112-.169h-.029Z" transform="translate(-8.174 -35.753)" fill="#fff"/>
        <path id="Path_54" data-name="Path 54" d="M170.635,53.3l-.112-.367-.363-.2-.363-.31h-.251l-.391-.085-.139.2-.419.254-.167.254-.056.338.028.367.167.056v.338l.251.338.7.141.112-.254.363.028.559-.649Z" transform="translate(-8.684 -35.753)" fill="#fff"/>
        <path id="Path_55" data-name="Path 55" d="M177.278,53.3l-.112-.367-.363-.2-.363-.31h-.251l-.391-.085-.14.2-.419.254-.167.254-.056.338.028.367.167.056v.338l.251.338.7.141.112-.254.363.028.559-.649Z" transform="translate(-8.985 -35.753)" fill="#fff"/>
        <path id="Path_56" data-name="Path 56" d="M183.922,53.3l-.112-.367-.363-.2-.363-.31h-.251l-.391-.085-.139.2-.419.254-.167.254-.056.338.028.367.167.056v.338l.251.338.7.141.112-.254.363.028.559-.649Z" transform="translate(-9.286 -35.753)" fill="#fff"/>
      </g>
      <g id="Group_69" data-name="Group 69">
        <path id="Path_57" data-name="Path 57" d="M0,.536V22.029H14.923V19.872H6.174V.536Z" transform="translate(0 0)" fill="#fff"/>
        <path id="Path_58" data-name="Path 58" d="M17.024,2.078q0,2.078,2.651,2.078t2.651-2.078Q22.326,0,19.675,0T17.024,2.078Zm5.457,19.951V5.747a41.078,41.078,0,0,1-5.692.425V22.029Z" transform="translate(-0.761 0)" fill="#fff"/>
        <path id="Path_59" data-name="Path 59" d="M37.433,16.833q0,4.141-3.166,4.141A2.354,2.354,0,0,1,31.9,19.439a16.8,16.8,0,0,1-.64-5.661q0-6.676,2.994-6.677,2.261,0,2.261,3.4l-.031,1.512,2.667-1.307q0-5.007-5.474-5.007a7.992,7.992,0,0,0-6.066,2.37,8.822,8.822,0,0,0-2.261,6.354q0,7.952,7.765,7.952,6.549,0,6.549-6.046l-.015-.646-2.4-.74a15.065,15.065,0,0,1,.188,1.889Z" transform="translate(-1.148 0)" fill="#fff"/>
        <path id="Path_60" data-name="Path 60" d="M53.688,17.305q0,3.527-2.932,3.527-3.134,0-3.134-6.235h8.3q0-8.882-6.815-8.881a6.705,6.705,0,0,0-5.348,2.456,9.382,9.382,0,0,0-2.09,6.3q0,7.921,7.859,7.921,6.066,0,6.424-5.5l-2.292-.677q.033.615.032,1.086Zm-6.02-5.92q.187-4.109,1.684-4.11,1.652,0,1.653,5.543h-3.4Z" transform="translate(-1.888 0)" fill="#fff"/>
        <path id="Path_61" data-name="Path 61" d="M68.39,6.157v8q0,5.543-2.557,5.543-.968,0-.967-1.606V5.747q-2.822.283-5.692.409V18.234q0,4.095,4.163,4.094a5.925,5.925,0,0,0,5.052-2.835v2.535h5.692V5.747q-2.838.284-5.692.41Z" transform="translate(-2.681 0)" fill="#fff"/>
        <path id="Path_62" data-name="Path 62" d="M78.089.536V22.029H83.78V.22q-3.337.315-5.691.315Z" transform="translate(-3.538 0)" fill="#fff"/>
        <path id="Path_63" data-name="Path 63" d="M97.263,6.771q0,3.291,2.713,3.291a2.444,2.444,0,0,0,2.76-2.771q0-2.693-2.511-2.693A3.89,3.89,0,0,1,102.018,2.2V.2q-4.755,1.448-4.755,6.566Zm6.815,0q0,3.291,2.713,3.291a2.444,2.444,0,0,0,2.76-2.771q0-2.693-2.494-2.693A3.829,3.829,0,0,1,108.833,2.2V.2q-4.756,1.465-4.756,6.566Z" transform="translate(-4.406 0)" fill="#fff"/>
        <path id="Path_64" data-name="Path 64" d="M120.508.173A8.252,8.252,0,0,0,115,1.945a5.811,5.811,0,0,0-2.1,4.668q0,5.117,6.284,7.448,4.351,1.622,4.351,3.763,0,2.881-3.634,2.882-4.537,0-4.538-4a9.985,9.985,0,0,1,.343-2.378l-2.978.661a12.2,12.2,0,0,0-.078,1.244q0,6.189,7.905,6.188a8.473,8.473,0,0,0,5.723-1.85,6.147,6.147,0,0,0,2.152-4.9q0-5.211-7.672-7.874-3.976-1.385-3.976-3.322,0-2.581,3.555-2.582,4.507,0,4.506,3.747a7.054,7.054,0,0,1-.187,1.449l2.869-.536q0-6.377-7.017-6.377Z" transform="translate(-5.104 0)" fill="#fff"/>
        <path id="Path_65" data-name="Path 65" d="M137.384,27.4V20.722a4.685,4.685,0,0,0,3.743,1.732q5.536,0,5.535-8.393A11,11,0,0,0,145.2,8.006a4.474,4.474,0,0,0-3.914-2.26,4.637,4.637,0,0,0-3.9,2.409V5.763a46.75,46.75,0,0,1-5.692.409V27.4Zm3.369-13.416q0,6.157-1.622,6.157-1.809,0-1.808-6.157,0-5.92,1.886-5.92,1.543,0,1.544,5.92Z" transform="translate(-5.966 0)" fill="#fff"/>
        <path id="Path_66" data-name="Path 66" d="M150.2,2.078q0,2.078,2.651,2.078t2.651-2.078Q155.505,0,152.855,0T150.2,2.078Zm5.458,19.951V5.747a41.07,41.07,0,0,1-5.692.425V22.029Z" transform="translate(-6.794 0)" fill="#fff"/>
        <path id="Path_67" data-name="Path 67" d="M170.9,10.645a7.566,7.566,0,0,0,.265-1.843q0-3.055-2.744-3.055-2.012,0-3.4,2.613V5.747a29.142,29.142,0,0,1-4.584.425l-1.107-.015V22.029h5.692V12.518a7.937,7.937,0,0,1,.5-2.811q.5-1.33,1.045-1.33.717,0,.718,1.008a3.674,3.674,0,0,1-.219,1.165,12.437,12.437,0,0,0-.358,1.37h3.9q.2-.85.3-1.275Z" transform="translate(-7.218 0)" fill="#fff"/>
        <path id="Path_68" data-name="Path 68" d="M182.852,6.157v8q0,5.543-2.557,5.543-.968,0-.967-1.606V5.747q-2.822.283-5.692.409V18.234q0,4.095,4.163,4.094a5.925,5.925,0,0,0,5.052-2.835v2.535h5.692V5.747q-2.838.284-5.692.41Z" transform="translate(-7.867 0)" fill="#fff"/>
        <path id="Path_69" data-name="Path 69" d="M214.1,11.338V22.029h6.175V.536H214.1V9.18h-5.037V.536h-6.175V22.029h6.175V11.338Z" transform="translate(-9.192 0)" fill="#fff"/>
        <path id="Path_70" data-name="Path 70" d="M239.931,20.014a2.019,2.019,0,0,1-.873.33q-.951,0-.951-1.48V9.227q0-3.527-6.487-3.527-6.83,0-6.83,3.779a9.564,9.564,0,0,0,.109,1.386l2.822.551a6.113,6.113,0,0,1-.437-1.952q0-2.361,2.776-2.362a2.14,2.14,0,0,1,2.4,2.441q0,1.858-4.179,3.181-4.553,1.433-4.553,4.976,0,4.661,4.974,4.661a4.771,4.771,0,0,0,4.085-1.921q.686,1.843,3.618,1.843a11.113,11.113,0,0,0,4.07-.819Zm-7.515-2.976q0,3.118-1.777,3.118-1.216,0-1.217-3.149a3.73,3.73,0,0,1,1.762-3.5,4.819,4.819,0,0,0,1.232-1.024Z" transform="translate(-10.136 0)" fill="#fff"/>
        <path id="Path_71" data-name="Path 71" d="M253.969,10.645a7.567,7.567,0,0,0,.265-1.843q0-3.055-2.744-3.055-2.012,0-3.4,2.613V5.747a29.143,29.143,0,0,1-4.585.425L242.4,6.157V22.029h5.692V12.518a7.936,7.936,0,0,1,.5-2.811q.5-1.33,1.045-1.33.717,0,.718,1.008a3.674,3.674,0,0,1-.219,1.165,12.4,12.4,0,0,0-.359,1.37h3.9q.2-.85.3-1.275Z" transform="translate(-10.982 0)" fill="#fff"/>
        <path id="Path_72" data-name="Path 72" d="M267.928,17.305q0,3.527-2.931,3.527-3.135,0-3.135-6.235h8.3q0-8.882-6.814-8.881A6.706,6.706,0,0,0,258,8.173a9.382,9.382,0,0,0-2.09,6.3q0,7.921,7.859,7.921,6.066,0,6.424-5.5l-2.292-.677q.032.615.031,1.086Zm-6.019-5.92q.187-4.109,1.684-4.11,1.653,0,1.653,5.543h-3.4Z" transform="translate(-11.594 0)" fill="#fff"/>
        <path id="Path_73" data-name="Path 73" d="M279.278,6.2V1.039A25.522,25.522,0,0,1,273.587,3.4V6.2h-1.9V7.983h1.9V18.518q0,3.685,4.288,3.685,3.6,0,4.272-2.488l-1.622-.157q-.093.709-.577.708-.67,0-.671-1.055V7.983H281.8V6.2Z" transform="translate(-12.309 0)" fill="#fff"/>
        <path id="Path_74" data-name="Path 74" d="M289.6,3.511Q289.6.22,286.89.22a2.445,2.445,0,0,0-2.76,2.772q0,2.693,2.5,2.692a3.833,3.833,0,0,1-1.777,2.394v1.984Q289.6,8.644,289.6,3.511Zm6.814,0Q296.417.22,293.7.22a2.445,2.445,0,0,0-2.76,2.772q0,2.693,2.5,2.692a3.833,3.833,0,0,1-1.777,2.394v1.984q4.755-1.434,4.755-6.551Z" transform="translate(-12.872 0)" fill="#fff"/>
      </g>
    </g>
  </g>
</svg>
