<?xml version="1.0" encoding="utf-8"?>
<!-- Generator: Adobe Illustrator 16.2.0, SVG Export Plug-In . SVG Version: 6.00 Build 0)  -->
<!DOCTYPE svg PUBLIC "-//W3C//DTD SVG 1.1//EN" "http://www.w3.org/Graphics/SVG/1.1/DTD/svg11.dtd">
<svg version="1.1" id="Layer_1" xmlns="http://www.w3.org/2000/svg" xmlns:xlink="http://www.w3.org/1999/xlink" x="0px" y="0px"
	 width="198.059px" height="198.389px" viewBox="0 0 198.059 198.389" enable-background="new 0 0 198.059 198.389"
	 xml:space="preserve">
<circle fill="#FFFFFF" stroke="#004B28" stroke-width="7" stroke-miterlimit="10" cx="99.195" cy="99.194" r="93.694"/>
<g>
	<path fill="#004B28" d="M46.383,49.068c-0.072,1.525-0.106,2.878-0.209,4.226c-0.101,1.355-0.289,2.703-0.401,4.055
		c-0.038,0.448,0.011,0.907,0.069,1.356c0.337,2.655,1.47,3.742,4.139,3.803c7.096,0.164,14.195,0.225,21.289,0.437
		c3.468,0.103,6.928,0.454,10.393,0.682c1.055,0.069,2.112,0.146,3.167,0.14c4.691-0.018,9.342,0.448,14.063,1.006
		c1.609,2.042,2.506,4.435,3.195,6.907c0.589,2.111,0.916,4.271,0.925,6.482c0.021,4.306,0.058,8.601-0.343,12.903
		c-0.266,2.852-0.166,5.733-0.262,8.603c-0.03,0.901-0.082,1.814-0.267,2.695c-0.242,1.152-0.884,1.629-2.058,1.739
		c-1.326,0.127-2.536-0.315-3.731-0.79c-2.385-0.946-4.77-1.903-7.143-2.879c-4.708-1.934-9.587-3.266-14.631-3.863
		c-2.463-0.295-4.974-0.207-7.465-0.238c-4.465-0.059-8.935,0.147-13.285,1.153c-5.78,1.332-11.021,3.706-14.628,8.759
		c-0.565,0.794-1.283,1.483-1.968,2.185c-0.311,0.317-0.688,0.594-1.082,0.803c-1.161,0.614-1.942,0.218-2.043-1.054
		c-0.123-1.517-0.038-2.99,0.633-4.426c1.708-3.65,3.894-6.986,6.429-10.103c0.87-1.067,2.037-1.764,3.203-2.481
		c2.404-1.478,4.947-2.492,7.702-3.172c3.904-0.966,7.837-1.591,11.838-1.863c4.023-0.273,7.986,0.263,11.932,0.952
		c4.846,0.843,9.606,2.012,14.21,3.776c0.979,0.374,2.005,0.624,2.835,0.878c0.925-0.308,0.983-0.919,1.041-1.529
		c0.297-3.232,0.598-6.465,0.89-9.7c0.206-2.255,0.43-4.509,0.595-6.768c0.147-2.011-0.688-2.962-2.667-3.117
		c-0.452-0.035-0.909-0.024-1.359,0.008c-3.011,0.211-6.021,0.439-9.032,0.649c-3.24,0.228-6.475,0.494-9.718,0.651
		c-3.921,0.189-7.852,0.465-11.767,0.371c-4.598-0.109-9.189-0.568-13.781-0.889c-5.038-0.354-7.853-3.425-9.442-7.88
		c-0.689-1.927-0.962-3.955-0.973-6.013c-0.023-4.002-0.089-8.006-0.116-12.008c-0.021-2.855,1.39-4.875,3.829-6.206
		c0.509-0.279,1.143-0.367,1.732-0.456c2.067-0.311,4.061,0.125,6.028,0.699c0.798,0.232,1.595,0.489,2.352,0.82
		c3.078,1.346,6.319,2.018,9.635,2.384c0.673,0.074,1.359,0.12,2.034,0.084c4.976-0.27,9.945-0.589,14.867-1.443
		c3.273-0.569,6.558-1.042,9.716-2.155c1.449-0.51,2.953-0.316,4.476-0.104c1.888,0.262,2.585,2.301,1.811,3.818
		c-0.825,1.616-2.02,2.841-3.649,3.575c-1.439,0.65-2.913,1.297-4.437,1.688c-6.986,1.791-14.076,2.856-21.306,2.273
		c-4.736-0.382-9.454-1.014-14.178-1.542C48.509,48.844,47.549,48.583,46.383,49.068z"/>
	<path fill="#004B28" d="M119.229,125.549c-0.402-0.179-0.663-0.345-0.949-0.415c-7.043-1.727-14.133-3.236-21.34-4.066
		c-4.218-0.485-8.444-0.347-12.59,0.776c-2.663,0.726-5.073,1.914-7.101,3.819c-0.826,0.774-1.669,1.533-2.507,2.293
		c-0.757,0.687-1.573,0.812-2.572,0.199c0-0.49-0.099-1.023,0.017-1.509c0.546-2.317,1.497-4.422,3.368-6.011
		c1.738-1.478,3.622-2.7,5.743-3.569c2.937-1.205,5.902-2.31,9.031-2.93c3.768-0.747,7.523-0.533,11.251,0.187
		c4.148,0.799,8.274,1.721,12.408,2.601c1.685,0.358,3.365,0.747,4.904,1.089c0.872-0.57,0.78-1.299,0.813-1.956
		c0.217-4.445,0.456-8.894,0.61-13.344c0.152-4.374,0.246-8.751,0.296-13.128c0.016-1.427-0.14-2.863-0.316-4.283
		c-0.143-1.133,0.264-1.906,1.218-2.441c0.395-0.222,0.796-0.434,1.206-0.621c1.01-0.458,1.926-0.299,2.676,0.523
		c0.353,0.386,0.712,0.805,0.927,1.272c1.821,4.009,3.235,8.118,3.345,12.598c0.145,5.963,0.365,11.921,0.581,17.882
		c0.045,1.199,0.217,2.391,0.339,3.683c0.533,0.061,0.964,0.16,1.388,0.149c2.341-0.062,4.678-0.161,7.02-0.218
		c0.586-0.017,1.175,0.073,1.712,0.11c0.427,1.342,0.427,1.342,0.11,2.81c-3.625,1.458-7.621,2.027-11.46,3.546
		c-0.174,2.54-0.454,5.015-0.489,7.49c-0.101,7.246-0.062,14.498-0.168,21.745c-0.052,3.549-0.407,7.082-1.233,10.549
		c-0.099,0.407-0.343,0.778-0.582,1.308c-0.473-0.391-0.881-0.618-1.133-0.959c-1.345-1.825-2.609-3.687-3.417-5.841
		c-1.876-5.017-2.678-10.204-2.687-15.535c-0.006-2.871,0.013-5.739-0.028-8.608c-0.038-2.718-0.137-5.433-0.219-8.148
		C119.395,126.298,119.307,126.006,119.229,125.549z"/>
	<path fill="#004B28" d="M157.719,120.831c0,6.195,0.109,12.393-0.033,18.583c-0.108,4.677-0.533,9.348-0.837,14.018
		c-0.032,0.523-0.11,1.073-0.317,1.544c-0.168,0.382-0.499,0.828-0.864,0.963c-0.911,0.334-1.872,0.56-2.833,0.729
		c-0.668,0.116-1.173-0.262-1.406-0.895c-0.182-0.492-0.329-1.005-0.415-1.521c-1.026-6.104-2.156-12.193-2.356-18.41
		c-0.09-2.789-0.391-5.571-0.584-8.36c-0.037-0.526-0.034-1.056-0.023-1.583c0.036-1.963,0.18-3.93,0.098-5.887
		c-0.102-2.494-0.056-4.974,0.07-7.466c0.282-5.581,0.438-11.169,0.66-16.753c0.121-3.093,0.252-6.186,0.416-9.278
		c0.059-1.052,0.224-2.1,0.358-3.148c0.083-0.641,0.43-1.098,1.005-1.416c2.04-1.125,4.104-0.433,5.049,1.686
		c0.689,1.541,0.921,3.188,1.157,4.831c0.602,4.193,0.779,8.423,0.822,12.651c0.064,6.571,0.018,13.145,0.018,19.718
		C157.706,120.831,157.712,120.831,157.719,120.831z"/>
</g>
</svg>
