<svg id="news_hover_r" xmlns="http://www.w3.org/2000/svg" width="230" height="230" viewBox="0 0 230 230">
  <g id="Component_1_31" data-name="Component 1 – 31">
    <g id="Group_12" data-name="Group 12">
      <g id="Rectangle_5" data-name="Rectangle 5" fill="none" stroke="#007d43" stroke-width="5">
        <rect width="230" height="230" stroke="none"/>
        <rect x="2.5" y="2.5" width="225" height="225" fill="none"/>
      </g>
    </g>
    <text id="Text" transform="translate(20 115)" fill="#007d43" font-size="21" font-family="SegoeUI, Segoe UI" opacity="0"><tspan x="0" y="23">Text</tspan></text>
    <path id="Path_87" data-name="Path 87" d="M-39.062-17.615h-2.2V-6.177c0,3.76,2.625,6.47,6.995,6.47s6.995-2.71,6.995-6.47V-17.615h-2.2V-6.323c0,2.661-1.746,4.59-4.8,4.59s-4.8-1.929-4.8-4.59ZM-24.072,0h2.124V-17.615h-2.124ZM-18.4-15.759V-12.7h-1.892v1.746H-18.4V-3.3c0,2.441.9,3.394,3.235,3.394A7.567,7.567,0,0,0-13.818,0V-1.782a8.265,8.265,0,0,1-.879.061c-1.086,0-1.575-.525-1.575-1.685V-10.95h2.466V-12.7h-2.466v-3.064ZM-11.438,0h2.124V-12.7h-2.124Zm1.062-14.832A1.331,1.331,0,0,0-9.045-16.15a1.323,1.323,0,0,0-1.331-1.318,1.321,1.321,0,0,0-1.318,1.318A1.329,1.329,0,0,0-10.376-14.832ZM-6.445,0h2.124V-7.959a2.909,2.909,0,0,1,2.905-3.076,2.41,2.41,0,0,1,2.6,2.527V0H3.308V-8.069a2.809,2.809,0,0,1,2.869-2.966A2.468,2.468,0,0,1,8.813-8.276V0h2.124V-8.765A3.887,3.887,0,0,0,6.8-12.915,4.249,4.249,0,0,0,2.82-10.5H2.771A3.553,3.553,0,0,0-.793-12.915a3.8,3.8,0,0,0-3.6,2.246h-.049V-12.7h-2ZM18.726-11.072a3.4,3.4,0,0,1,3.381,3.638h-6.9A3.568,3.568,0,0,1,18.726-11.072Zm3.333,7.434a3.065,3.065,0,0,1-3.149,2.014c-2.283,0-3.711-1.6-3.711-4.028v-.122H24.3V-6.58c0-3.845-2.112-6.335-5.542-6.335-3.5,0-5.75,2.673-5.75,6.616C13.013-2.307,15.222.22,18.86.22c2.771,0,4.919-1.636,5.286-3.857ZM26.55,0h2.124V-17.615H26.55ZM36.633-11.072a3.4,3.4,0,0,1,3.381,3.638h-6.9A3.568,3.568,0,0,1,36.633-11.072Zm3.333,7.434a3.065,3.065,0,0,1-3.149,2.014c-2.283,0-3.711-1.6-3.711-4.028v-.122h9.106V-6.58c0-3.845-2.112-6.335-5.542-6.335-3.5,0-5.75,2.673-5.75,6.616C30.92-2.307,33.13.22,36.768.22c2.771,0,4.919-1.636,5.286-3.857ZM-34.723,30H-32.6V22.529a3.239,3.239,0,0,1,3.308-3.564c1.953,0,2.917,1.123,2.917,3.174V30h2.124V21.76c0-2.881-1.611-4.675-4.395-4.675a4.248,4.248,0,0,0-4.028,2.246h-.049V17.3h-2Zm18.433.22c3.5,0,5.872-2.527,5.872-6.567s-2.368-6.567-5.872-6.567-5.884,2.515-5.884,6.567S-19.806,30.22-16.29,30.22Zm0-1.868c-2.246,0-3.723-1.709-3.723-4.7s1.477-4.7,3.723-4.7,3.711,1.709,3.711,4.7S-14.044,28.352-16.29,28.352ZM2.142,17.3H.018v7.458c0,2.161-1.245,3.577-3.308,3.577-1.965,0-2.93-1.111-2.93-3.174V17.3H-8.344v8.24c0,2.881,1.624,4.675,4.395,4.675A4.174,4.174,0,0,0,.079,27.937H.128V30H2.142Zm3.43-3.064V17.3H3.68V19.05H5.573V26.7c0,2.441.9,3.394,3.235,3.394A7.567,7.567,0,0,0,10.15,30V28.218a8.265,8.265,0,0,1-.879.061c-1.086,0-1.575-.525-1.575-1.685V19.05h2.466V17.3H7.7V14.241ZM16.486,28.413c-1.526,0-2.539-.793-2.539-2s.977-1.953,2.686-2.063l3.394-.208v1.038A3.341,3.341,0,0,1,16.486,28.413ZM16.01,30.22a4.63,4.63,0,0,0,4.077-2.4h.049V30H22.15V21.223c0-2.527-1.88-4.138-4.858-4.138-3,0-4.883,1.685-5.029,3.882h2.051a2.664,2.664,0,0,1,2.93-2.014c1.758,0,2.783.928,2.783,2.478v1.062l-3.638.208c-2.93.171-4.6,1.538-4.6,3.711C11.786,28.694,13.483,30.22,16.01,30.22ZM13.2,11.812A3.641,3.641,0,0,0,17.133,15.6a3.641,3.641,0,0,0,3.931-3.784H19.525a2.394,2.394,0,1,1-4.785,0Zm12.329,2.429V17.3H23.639V19.05h1.892V26.7c0,2.441.9,3.394,3.235,3.394a7.567,7.567,0,0,0,1.343-.1V28.218a8.265,8.265,0,0,1-.879.061c-1.086,0-1.575-.525-1.575-1.685V19.05h2.466V17.3H27.655V14.241Zm1.953,21.692L29.12,31.55H27.264l-1.318,4.382Zm5-5.933h2.124V17.3H32.489Zm1.062-14.832a1.318,1.318,0,1,0-1.318-1.318A1.331,1.331,0,0,0,33.551,15.168Z" transform="translate(114.76 106.115)" fill="#007d43" stroke="#007d43" stroke-width="0.5"/>
  </g>
  <path id="Path_8" data-name="Path 8" d="M29.132,29.132H0V24.009H24.009V0h5.123Z" transform="translate(190.87 190.868)" fill="#007d43"/>
</svg>
