<svg id="onoare_hover1_r" xmlns="http://www.w3.org/2000/svg" width="230" height="230" viewBox="0 0 230 230">
  <g id="Component_1_31" data-name="Component 1 – 31">
    <g id="Group_12" data-name="Group 12">
      <path id="Path_75" data-name="Path 75" d="M0,0H230V160l-70,70H0Z" fill="#004b28"/>
    </g>
    <text id="Text" transform="translate(20 115)" fill="#004b28" font-size="21" font-family="SegoeUI, Segoe UI" opacity="0"><tspan x="0" y="23">Text</tspan></text>
    <path id="Path_86" data-name="Path 86" d="M-35.168,0V-15.637h5.554v-1.978H-42.92v1.978h5.554V0Zm8.435-1.587c-1.526,0-2.539-.793-2.539-2s.977-1.953,2.686-2.063l3.394-.208v1.038A3.341,3.341,0,0,1-26.733-1.587ZM-27.209.22a4.63,4.63,0,0,0,4.077-2.4h.049V0h2.014V-8.777c0-2.527-1.88-4.138-4.858-4.138-3,0-4.883,1.685-5.029,3.882h2.051a2.664,2.664,0,0,1,2.93-2.014c1.758,0,2.783.928,2.783,2.478v1.062l-3.638.208c-2.93.171-4.6,1.538-4.6,3.711C-31.433-1.306-29.736.22-27.209.22Zm15.149,0c3.247,0,5.4-2.576,5.4-6.567s-2.161-6.567-5.359-6.567a4.5,4.5,0,0,0-4.065,2.344h-.049v-7.043h-2.124V0h2.026V-2.148h.049A4.554,4.554,0,0,0-12.061.22Zm-.415-11.267c2.246,0,3.638,1.819,3.638,4.7,0,2.905-1.392,4.7-3.638,4.7-2.148,0-3.674-1.868-3.674-4.7S-14.624-11.047-12.476-11.047ZM-4.407,0h2.124V-17.615H-4.407Zm9.18-1.587c-1.526,0-2.539-.793-2.539-2S3.21-5.542,4.919-5.652l3.394-.208v1.038A3.341,3.341,0,0,1,4.773-1.587ZM4.3.22a4.63,4.63,0,0,0,4.077-2.4h.049V0h2.014V-8.777c0-2.527-1.88-4.138-4.858-4.138-3,0-4.883,1.685-5.029,3.882H2.6a2.664,2.664,0,0,1,2.93-2.014c1.758,0,2.783.928,2.783,2.478v1.062L4.675-7.3c-2.93.171-4.6,1.538-4.6,3.711C.073-1.306,1.77.22,4.3.22Zm18.774,0a4.543,4.543,0,0,0,4.1-2.368h.037V0h2.026V-17.615H27.112v6.982h-.049a4.46,4.46,0,0,0-4.041-2.283c-3.2,0-5.383,2.588-5.383,6.567S19.836.22,23.071.22Zm.4-11.267c2.185,0,3.65,1.868,3.65,4.7s-1.465,4.7-3.65,4.7c-2.246,0-3.662-1.819-3.662-4.7S21.228-11.047,23.474-11.047Zm13.721-.024a3.4,3.4,0,0,1,3.381,3.638h-6.9A3.568,3.568,0,0,1,37.195-11.072Zm3.333,7.434a3.065,3.065,0,0,1-3.149,2.014c-2.283,0-3.711-1.6-3.711-4.028v-.122h9.106V-6.58c0-3.845-2.112-6.335-5.542-6.335-3.5,0-5.75,2.673-5.75,6.616,0,3.992,2.209,6.519,5.847,6.519,2.771,0,4.919-1.636,5.286-3.857ZM-29.437,30.22c3.5,0,5.872-2.527,5.872-6.567s-2.368-6.567-5.872-6.567-5.884,2.515-5.884,6.567S-32.953,30.22-29.437,30.22Zm0-1.868c-2.246,0-3.723-1.709-3.723-4.7s1.477-4.7,3.723-4.7,3.711,1.709,3.711,4.7S-27.191,28.352-29.437,28.352ZM-21.429,30h2.124V22.529A3.239,3.239,0,0,1-16,18.965c1.953,0,2.917,1.123,2.917,3.174V30h2.124V21.76c0-2.881-1.611-4.675-4.395-4.675a4.248,4.248,0,0,0-4.028,2.246h-.049V17.3h-2ZM-3,30.22c3.5,0,5.872-2.527,5.872-6.567S.507,17.085-3,17.085-8.881,19.6-8.881,23.652-6.512,30.22-3,30.22Zm0-1.868c-2.246,0-3.723-1.709-3.723-4.7s1.477-4.7,3.723-4.7,3.711,1.709,3.711,4.7S-.751,28.352-3,28.352ZM9.2,28.413c-1.526,0-2.539-.793-2.539-2s.977-1.953,2.686-2.063l3.394-.208v1.038A3.341,3.341,0,0,1,9.2,28.413ZM8.722,30.22a4.63,4.63,0,0,0,4.077-2.4h.049V30h2.014V21.223c0-2.527-1.88-4.138-4.858-4.138-3,0-4.883,1.685-5.029,3.882H7.025a2.664,2.664,0,0,1,2.93-2.014c1.758,0,2.783.928,2.783,2.478v1.062L9.1,22.7c-2.93.171-4.6,1.538-4.6,3.711C4.5,28.694,6.2,30.22,8.722,30.22ZM17.56,30h2.124V22.09a2.689,2.689,0,0,1,2.722-2.979,4.275,4.275,0,0,1,1.135.122V17.17a5.472,5.472,0,0,0-.854-.085,3.109,3.109,0,0,0-3.076,2.295h-.049V17.3h-2ZM29.742,18.928a3.4,3.4,0,0,1,3.381,3.638h-6.9A3.568,3.568,0,0,1,29.742,18.928Zm3.333,7.434a3.065,3.065,0,0,1-3.149,2.014c-2.283,0-3.711-1.6-3.711-4.028v-.122h9.106V23.42c0-3.845-2.112-6.335-5.542-6.335-3.5,0-5.75,2.673-5.75,6.616,0,3.992,2.209,6.519,5.847,6.519,2.771,0,4.919-1.636,5.286-3.857Z" transform="translate(114.92 108.615)" fill="#fff"/>
  </g>
  <path id="Path_8" data-name="Path 8" d="M29.132,29.132H0V24.009H24.009V0h5.123Z" transform="translate(190.87 190.868)" fill="#004b28"/>
</svg>
