<svg id="orar_hover_r" xmlns="http://www.w3.org/2000/svg" width="230" height="230" viewBox="0 0 230 230">
  <g id="Component_1_31" data-name="Component 1 – 31">
    <g id="Group_12" data-name="Group 12">
      <g id="Rectangle_5" data-name="Rectangle 5" fill="none" stroke="#19ac5d" stroke-width="5">
        <rect width="230" height="230" stroke="none"/>
        <rect x="2.5" y="2.5" width="225" height="225" fill="none"/>
      </g>
    </g>
    <text id="Text" transform="translate(20 115)" fill="#19ac5d" font-size="21" font-family="SegoeUI, Segoe UI" opacity="0"><tspan x="0" y="23">Text</tspan></text>
    <path id="Path_88" data-name="Path 88" d="M-13.855-17.908c-4.993,0-8.118,3.516-8.118,9.106S-18.848.293-13.855.293-5.737-3.21-5.737-8.8-8.862-17.908-13.855-17.908Zm0,2.026c3.6,0,5.859,2.734,5.859,7.08s-2.258,7.068-5.859,7.068S-19.714-4.468-19.714-8.8-17.456-15.881-13.855-15.881ZM-3.333,0h2.124V-7.91a2.689,2.689,0,0,1,2.722-2.979,4.275,4.275,0,0,1,1.135.122V-12.83a5.472,5.472,0,0,0-.854-.085A3.109,3.109,0,0,0-1.282-10.62h-.049V-12.7h-2ZM8.313-1.587c-1.526,0-2.539-.793-2.539-2S6.75-5.542,8.459-5.652l3.394-.208v1.038A3.341,3.341,0,0,1,8.313-1.587ZM7.837.22a4.63,4.63,0,0,0,4.077-2.4h.049V0h2.014V-8.777c0-2.527-1.88-4.138-4.858-4.138-3,0-4.883,1.685-5.029,3.882H6.14a2.664,2.664,0,0,1,2.93-2.014c1.758,0,2.783.928,2.783,2.478v1.062L8.215-7.3c-2.93.171-4.6,1.538-4.6,3.711C3.613-1.306,5.31.22,7.837.22ZM16.675,0H18.8V-7.91a2.689,2.689,0,0,1,2.722-2.979,4.275,4.275,0,0,1,1.135.122V-12.83a5.472,5.472,0,0,0-.854-.085,3.109,3.109,0,0,0-3.076,2.295h-.049V-12.7h-2Z" transform="translate(114.473 123.408)" fill="#19ac5d" stroke="#19ac5d" stroke-width="0.5"/>
  </g>
  <path id="Path_8" data-name="Path 8" d="M29.132,29.132H0V24.009H24.009V0h5.123Z" transform="translate(190.87 190.868)" fill="none"/>
</svg>
