<svg xmlns="http://www.w3.org/2000/svg" width="3" height="118" viewBox="0 0 3 118">
  <g id="Path_39" data-name="Path 39" transform="translate(1 1)" fill="#fff">
    <path d="M 1.5 116.5 L 1 116.5 L 0 116.5 L -0.5 116.5 L -0.5 116 L -0.5 0 L -0.5 -0.5 L 0 -0.5 L 1 -0.5 L 1.5 -0.5 L 1.5 0 L 1.5 116 L 1.5 116.5 Z" stroke="none"/>
    <path d="M 0 0 L 0 116 L 1 116 L 1 0 L 0 0 M -1 -1 L 0 -1 L 1 -1 L 2 -1 L 2 0 L 2 116 L 2 117 L 1 117 L 0 117 L -1 117 L -1 116 L -1 0 L -1 -1 Z" stroke="none" fill="#fff"/>
  </g>
</svg>
