<svg xmlns="http://www.w3.org/2000/svg" width="230" height="230" viewBox="0 0 230 230">
  <g id="vlastarul_r" transform="translate(-1085 -110)">
    <g id="Component_1_33" data-name="Component 1 – 33" transform="translate(1085 110)">
      <g id="Group_12" data-name="Group 12">
        <rect id="Rectangle_5" data-name="Rectangle 5" width="230" height="230" fill="#004b28"/>
      </g>
      <text id="Text" transform="translate(20 115)" fill="#004b28" font-size="21" font-family="SegoeUI, Segoe UI" opacity="0"><tspan x="0" y="23">Text</tspan></text>
      <path id="Path_81" data-name="Path 81" d="M-76.086-15.662h4.114c2.271,0,3.638,1.257,3.638,3.369,0,2.161-1.282,3.381-3.54,3.381h-4.211Zm0,8.691h4.211L-68.1,0h2.576L-69.6-7.312a5.03,5.03,0,0,0,3.54-5.054c0-3.174-2.222-5.249-5.615-5.249h-6.6V0h2.2Zm17.542-4.1a3.4,3.4,0,0,1,3.381,3.638h-6.9A3.568,3.568,0,0,1-58.545-11.072Zm3.333,7.434a3.065,3.065,0,0,1-3.149,2.014c-2.283,0-3.711-1.6-3.711-4.028v-.122h9.106V-6.58c0-3.845-2.112-6.335-5.542-6.335-3.5,0-5.75,2.673-5.75,6.616,0,3.992,2.209,6.519,5.847,6.519,2.771,0,4.919-1.636,5.286-3.857ZM-40.417-12.7h-2.209L-46.143-2.258h-.049l-3.5-10.437h-2.234L-47.253,0h2.173ZM-38.647,0h2.124V-12.7h-2.124Zm1.062-14.832a1.331,1.331,0,0,0,1.331-1.318,1.323,1.323,0,0,0-1.331-1.318A1.321,1.321,0,0,0-38.9-16.15,1.329,1.329,0,0,0-37.585-14.832Zm3.711,5.64c0,1.733,1.1,2.881,3.333,3.455l2.234.574c1.428.378,1.953.867,1.953,1.77,0,1.147-1.062,1.88-2.783,1.88s-2.722-.708-2.954-2.026h-2.124C-34-1.294-32.056.22-29.272.22c2.966,0,5.054-1.562,5.054-3.772,0-1.868-.928-2.8-3.491-3.442l-1.965-.476c-1.44-.366-2.112-.952-2.112-1.831,0-1.111,1.025-1.88,2.576-1.88s2.551.757,2.7,1.978h2.026c-.1-2.148-2.026-3.711-4.651-3.711C-31.934-12.915-33.875-11.365-33.875-9.192Zm12.537-6.567V-12.7H-23.23v1.746h1.892V-3.3c0,2.441.9,3.394,3.235,3.394A7.567,7.567,0,0,0-16.76,0V-1.782a8.265,8.265,0,0,1-.879.061c-1.086,0-1.575-.525-1.575-1.685V-10.95h2.466V-12.7h-2.466v-3.064ZM-10.547-1.587c-1.526,0-2.539-.793-2.539-2s.977-1.953,2.686-2.063l3.394-.208v1.038A3.341,3.341,0,0,1-10.547-1.587ZM-11.023.22a4.63,4.63,0,0,0,4.077-2.4H-6.9V0h2.014V-8.777c0-2.527-1.88-4.138-4.858-4.138-3,0-4.883,1.685-5.029,3.882h2.051a2.664,2.664,0,0,1,2.93-2.014c1.758,0,2.783.928,2.783,2.478v1.062l-3.638.208c-2.93.171-4.6,1.538-4.6,3.711C-15.247-1.306-13.55.22-11.023.22ZM3.052,0H5.176V-17.615H3.052Zm5.1,0h2.124V-12.7H8.154ZM9.216-14.832a1.331,1.331,0,0,0,1.331-1.318,1.323,1.323,0,0,0-1.331-1.318A1.321,1.321,0,0,0,7.9-16.15,1.329,1.329,0,0,0,9.216-14.832Zm14.478,6.3a5.056,5.056,0,0,0-5.334-4.382c-3.5,0-5.835,2.563-5.835,6.567,0,4.089,2.344,6.567,5.859,6.567a5.055,5.055,0,0,0,5.334-4.309H21.631A3.063,3.063,0,0,1,18.4-1.648c-2.2,0-3.711-1.746-3.711-4.7,0-2.881,1.489-4.7,3.687-4.7a3.12,3.12,0,0,1,3.247,2.515Zm7.068-2.539a3.4,3.4,0,0,1,3.381,3.638h-6.9A3.568,3.568,0,0,1,30.762-11.072Zm3.333,7.434a3.065,3.065,0,0,1-3.149,2.014c-2.283,0-3.711-1.6-3.711-4.028v-.122H36.34V-6.58c0-3.845-2.112-6.335-5.542-6.335-3.5,0-5.75,2.673-5.75,6.616C25.049-2.307,27.258.22,30.9.22c2.771,0,4.919-1.636,5.286-3.857ZM48.9-12.7H46.777v7.458c0,2.161-1.245,3.577-3.308,3.577-1.965,0-2.93-1.111-2.93-3.174V-12.7H38.416v8.24C38.416-1.575,40.039.22,42.81.22a4.174,4.174,0,0,0,4.028-2.283h.049V0H48.9ZM51.758,0h2.124V-17.615H51.758ZM67.175-12.7H65.051v7.458c0,2.161-1.245,3.577-3.308,3.577-1.965,0-2.93-1.111-2.93-3.174V-12.7H56.689v8.24c0,2.881,1.624,4.675,4.395,4.675a4.174,4.174,0,0,0,4.028-2.283h.049V0h2.014ZM70.032,0h2.124V-12.7H70.032Zm1.062-14.832a1.331,1.331,0,0,0,1.331-1.318,1.323,1.323,0,0,0-1.331-1.318,1.321,1.321,0,0,0-1.318,1.318A1.329,1.329,0,0,0,71.094-14.832ZM76.819.122A1.376,1.376,0,0,0,78.21-1.27a1.376,1.376,0,0,0-1.392-1.392A1.376,1.376,0,0,0,75.427-1.27,1.376,1.376,0,0,0,76.819.122Zm0-8.984a1.376,1.376,0,0,0,1.392-1.392,1.376,1.376,0,0,0-1.392-1.392,1.376,1.376,0,0,0-1.392,1.392A1.376,1.376,0,0,0,76.819-8.862ZM-36.462,30l6.494-17.615h-2.307l-5.237,14.941h-.073l-5.237-14.941h-2.307L-38.635,30Zm8.289,0h2.124V12.385h-2.124Zm9.18-1.587c-1.526,0-2.539-.793-2.539-2s.977-1.953,2.686-2.063l3.394-.208v1.038A3.341,3.341,0,0,1-18.994,28.413Zm-.476,1.807a4.63,4.63,0,0,0,4.077-2.4h.049V30h2.014V21.223c0-2.527-1.88-4.138-4.858-4.138-3,0-4.883,1.685-5.029,3.882h2.051a2.664,2.664,0,0,1,2.93-2.014c1.758,0,2.783.928,2.783,2.478v1.062l-3.638.208c-2.93.171-4.6,1.538-4.6,3.711C-23.694,28.694-22,30.22-19.47,30.22Zm-2.808-18.408A3.641,3.641,0,0,0-18.347,15.6a3.641,3.641,0,0,0,3.931-3.784h-1.538a2.314,2.314,0,0,1-2.393,2.466,2.314,2.314,0,0,1-2.393-2.466Zm11.426,9c0,1.733,1.1,2.881,3.333,3.455l2.234.574c1.428.378,1.953.867,1.953,1.77,0,1.147-1.062,1.88-2.783,1.88s-2.722-.708-2.954-2.026h-2.124c.22,2.246,2.161,3.76,4.944,3.76,2.966,0,5.054-1.562,5.054-3.772,0-1.868-.928-2.8-3.491-3.442l-1.965-.476c-1.44-.366-2.112-.952-2.112-1.831,0-1.111,1.025-1.88,2.576-1.88s2.551.757,2.7,1.978h2.026c-.1-2.148-2.026-3.711-4.651-3.711C-8.911,17.085-10.852,18.635-10.852,20.808ZM1.685,14.241V17.3H-.208V19.05H1.685V26.7c0,2.441.9,3.394,3.235,3.394A7.567,7.567,0,0,0,6.262,30V28.218a8.265,8.265,0,0,1-.879.061c-1.086,0-1.575-.525-1.575-1.685V19.05H6.274V17.3H3.809V14.241ZM12.476,28.413c-1.526,0-2.539-.793-2.539-2s.977-1.953,2.686-2.063l3.394-.208v1.038A3.341,3.341,0,0,1,12.476,28.413ZM12,30.22a4.63,4.63,0,0,0,4.077-2.4h.049V30H18.14V21.223c0-2.527-1.88-4.138-4.858-4.138-3,0-4.883,1.685-5.029,3.882H10.3a2.664,2.664,0,0,1,2.93-2.014c1.758,0,2.783.928,2.783,2.478v1.062l-3.638.208c-2.93.171-4.6,1.538-4.6,3.711C7.776,28.694,9.473,30.22,12,30.22ZM20.837,30h2.124V22.09a2.689,2.689,0,0,1,2.722-2.979,4.275,4.275,0,0,1,1.135.122V17.17a5.472,5.472,0,0,0-.854-.085,3.109,3.109,0,0,0-3.076,2.295h-.049V17.3h-2ZM38.965,17.3H36.841v7.458c0,2.161-1.245,3.577-3.308,3.577-1.965,0-2.93-1.111-2.93-3.174V17.3H28.479v8.24c0,2.881,1.624,4.675,4.395,4.675A4.174,4.174,0,0,0,36.9,27.937h.049V30h2.014ZM41.821,30h2.124V12.385H41.821Z" transform="translate(115.284 108.615)" fill="#fff"/>
    </g>
    <path id="Path_4" data-name="Path 4" d="M29.132,29.132H0V24.009H24.009V0h5.123Z" transform="translate(1275.868 300.868)" fill="#fff"/>
  </g>
</svg>
